<svg version="1.1" id="Layer_1" xmlns="http://www.w3.org/2000/svg" xmlns:xlink="http://www.w3.org/1999/xlink" x="0px" y="0px"
	 width="100%" viewBox="0 0 201 201" enable-background="new 0 0 201 201" xml:space="preserve">
<path fill="#506BF6" opacity="1.000000" stroke="none" 
	d="
M0.999999,183.000000 
	C1.000000,170.645767 1.000000,158.291550 1.318294,145.323410 
	C2.652198,141.068848 4.643704,137.369537 4.429251,133.802841 
	C4.177556,129.616745 5.136395,127.987434 9.168693,127.843735 
	C10.454296,127.797920 11.723574,127.293999 13.000948,127.400253 
	C13.007433,128.869186 13.013290,129.937561 13.017647,131.422546 
	C13.016623,133.227859 13.017097,134.616562 12.853727,136.238480 
	C13.126962,137.310623 13.564042,138.149567 14.001060,138.993866 
	C14.000998,138.999222 14.011720,138.998779 14.019270,139.352142 
	C14.669311,140.806274 15.311801,141.907013 15.995864,143.349670 
	C16.694328,145.127365 17.351219,146.563156 17.848238,148.227020 
	C18.032639,149.312241 18.376911,150.169388 18.721182,151.026550 
	C19.488106,150.362396 20.255032,149.698257 21.340380,149.003555 
	C21.870247,148.945236 22.081692,148.917496 22.486509,148.925980 
	C22.679882,148.962219 22.982803,149.213333 23.133572,149.369141 
	C23.500334,149.720383 23.741720,149.876602 24.004250,149.996780 
	C24.000000,150.000000 24.007311,149.992554 24.184477,150.329834 
	C27.482077,151.275314 31.242483,150.993408 33.587837,152.679672 
	C38.267483,156.044235 39.135902,153.668365 39.852612,149.820435 
	C39.860031,149.873062 39.754391,149.861435 40.100761,149.747894 
	C43.460629,145.431564 41.525024,142.521027 37.969151,140.019592 
	C37.996178,139.998566 37.949173,140.043594 37.977737,139.672577 
	C38.325321,137.866180 38.644337,136.430801 39.120785,134.742279 
	C39.519905,132.650467 39.761597,130.811813 40.272053,129.169083 
	C41.703743,131.244080 42.866669,133.123138 43.808498,135.159973 
	C44.388935,136.210037 45.190468,137.102341 46.100712,138.304504 
	C47.174358,140.077286 48.139294,141.540237 49.066849,142.997925 
	C49.029469,142.992630 49.054039,142.921249 49.055717,143.254852 
	C49.071682,143.810394 49.085964,144.032349 49.116062,144.374039 
	C49.131878,144.493790 49.092960,144.732239 49.072388,145.151382 
	C49.756145,147.365158 50.460472,149.159805 51.374596,150.986404 
	C51.584396,151.018372 51.982159,151.166458 52.345787,151.345627 
	C56.135719,151.690308 59.562027,151.855820 63.114933,152.299301 
	C64.173782,152.700592 65.106026,152.823898 66.038269,152.947220 
	C65.701027,151.960495 65.363777,150.973785 65.024841,149.548538 
	C64.686348,145.074722 64.349541,141.039429 64.302811,136.867126 
	C67.402252,133.171844 64.211029,132.851746 62.003777,131.640533 
	C61.645618,130.197983 61.316025,129.100128 61.391541,128.012238 
	C64.345329,128.919800 68.585083,129.244125 69.120712,130.824127 
	C70.633904,135.287781 71.579811,140.398071 70.942787,145.003723 
	C70.350159,149.288452 70.858215,150.947327 75.111633,150.902527 
	C75.069511,150.917267 75.101654,150.834015 75.150070,151.070892 
	C75.800385,151.257492 76.402290,151.207230 77.334648,151.094971 
	C78.109665,151.073547 78.554222,151.114105 79.092522,151.507462 
	C81.773567,155.664780 85.524048,156.016342 88.884026,153.211349 
	C90.611679,151.769073 92.934898,151.040207 95.210724,150.171021 
	C95.959793,150.567123 96.487114,150.781189 97.368080,151.037048 
	C99.750488,152.383621 101.779251,153.688416 104.237473,155.269424 
	C102.184837,156.650345 101.146706,157.348755 100.108566,158.047180 
	C105.433029,157.099854 111.826698,159.401047 115.407219,153.000061 
	C117.177254,152.996216 118.536858,152.992310 119.941620,153.322083 
	C120.323387,154.473404 120.660019,155.291061 121.087860,156.366760 
	C121.709854,157.098389 122.240639,157.571960 123.091087,158.228241 
	C124.118340,158.583618 124.825935,158.756271 125.640564,158.931473 
	C125.747604,158.934006 125.863472,159.114075 125.989761,159.404541 
	C127.079758,160.464462 128.043472,161.233917 129.155701,162.179626 
	C129.514801,162.581161 129.746750,162.781677 130.017838,162.958405 
	C130.035583,162.959366 130.072662,162.962234 130.124039,163.311462 
	C130.234131,165.130585 130.013306,166.689133 130.442169,168.041656 
	C130.770920,169.078400 131.917603,170.618866 132.704102,170.621017 
	C137.136139,170.633133 141.569244,170.247711 146.385040,170.003113 
	C147.533676,169.993973 148.299271,169.979553 149.033813,169.978851 
	C149.002762,169.992554 148.990631,169.925735 149.184082,170.158218 
	C149.920288,170.638290 150.463028,170.885864 151.142654,171.402069 
	C152.102631,174.992050 154.080109,173.963379 156.297043,172.761444 
	C157.044876,171.741714 157.552277,170.898956 158.256454,169.930420 
	C158.708496,169.623520 158.943832,169.419403 159.436127,169.130890 
	C160.193542,168.778336 160.674057,168.487213 161.528748,168.167664 
	C164.002075,167.167023 166.101196,166.194824 168.457397,165.123688 
	C169.193436,164.750397 169.672394,164.476044 170.421906,164.122955 
	C171.176971,163.760651 171.661469,163.477051 172.419800,163.121216 
	C173.176163,162.760681 173.658707,162.472397 174.458191,162.145523 
	C175.562759,161.799576 176.350372,161.492218 177.465576,161.140778 
	C178.909943,160.459015 180.026749,159.821320 181.510040,159.121368 
	C183.147827,157.693726 185.495972,156.343094 185.514908,154.960556 
	C185.633881,146.277298 185.234390,137.586945 184.694672,128.719543 
	C182.188431,128.895508 180.003036,129.425690 177.795944,129.541183 
	C176.453415,129.611420 175.077377,129.041794 173.779541,128.796371 
	C173.842697,128.833145 173.778473,128.964432 174.000656,128.761749 
	C174.425278,128.216904 174.627716,127.874748 174.716202,127.470284 
	C174.602249,127.407974 174.505188,127.167030 174.832947,127.065056 
	C175.788086,126.344345 176.415466,125.725609 177.294464,125.079636 
	C178.019409,124.887177 178.492706,124.721954 179.298996,124.541122 
	C180.073212,124.476273 180.514420,124.427048 181.136505,124.412025 
	C181.605682,124.235802 181.893967,124.025375 182.256409,123.798111 
	C182.330582,123.781273 182.365936,123.929207 182.665558,123.800034 
	C183.313477,123.412437 183.661789,123.154022 183.999680,122.946304 
	C183.989258,122.997009 183.887894,122.976021 184.112213,122.850761 
	C184.561371,122.470207 184.786224,122.214912 185.033875,121.734344 
	C185.056686,121.509079 185.023178,121.057472 185.138367,120.797501 
	C183.738312,119.864929 182.223038,119.192322 180.671280,118.557831 
	C180.634781,118.595947 180.551819,118.530701 180.557648,118.208832 
	C180.365509,117.286682 180.167557,116.686409 179.934464,115.733406 
	C178.836182,112.825790 177.721497,110.461121 174.602966,114.086800 
	C173.700821,114.232094 173.188934,114.341843 172.783371,114.441513 
	C172.889694,114.431427 172.685425,114.493935 172.627655,114.166786 
	C172.017746,112.900177 171.465622,111.960724 171.284119,110.986816 
	C173.137985,110.279732 174.787430,109.833145 176.071304,108.889290 
	C179.129211,106.641258 181.405899,106.684746 183.013458,110.487488 
	C183.194977,110.916878 184.004578,111.080750 185.663651,111.999344 
	C183.498535,106.270088 181.739548,101.615524 179.970520,96.583405 
	C178.660538,93.502563 177.360580,90.799286 175.763580,87.951904 
	C174.697678,85.871887 173.928833,83.935974 173.140488,81.595428 
	C173.373734,78.782852 173.626480,76.374893 174.256897,73.940826 
	C175.668091,72.898857 176.701630,71.883003 177.735168,70.867142 
	C176.451508,69.921265 175.167862,68.975380 173.740387,67.639145 
	C173.425873,59.120636 173.255142,50.992477 173.176102,42.601765 
	C172.462433,41.244564 171.657074,40.149918 170.886566,39.057846 
	C170.921417,39.060417 170.897247,39.125980 170.896729,38.763542 
	C169.884491,37.314262 168.872757,36.227417 167.903870,35.087654 
	C167.946686,35.034733 167.852188,35.145546 167.803345,34.802631 
	C166.509308,32.767944 165.448593,30.890196 163.975128,29.428555 
	C161.833862,27.304476 161.332962,29.151253 160.542664,30.972851 
	C117.386269,30.944500 74.699875,30.914934 31.931503,30.665783 
	C31.228607,30.314108 30.607691,30.182016 29.667435,30.052818 
	C28.923412,30.053125 28.498728,30.050541 27.743345,30.106056 
	C26.274652,31.073082 25.136660,31.982010 23.686150,32.962135 
	C22.307554,33.710995 21.241478,34.388653 19.866173,35.174133 
	C19.079210,35.961044 18.601475,36.640137 18.013611,37.611511 
	C17.525902,38.617020 17.148323,39.330246 16.468773,40.184238 
	C13.346500,41.416672 12.144466,43.124397 14.005232,46.373798 
	C14.004982,47.498898 14.006353,48.248932 13.810652,49.324661 
	C13.746911,52.100494 13.880241,54.550629 14.162695,57.332100 
	C14.821913,58.167187 15.332008,58.670933 15.900558,59.345215 
	C16.006693,59.774185 15.937333,59.996033 15.593042,60.622871 
	C14.754550,64.190750 16.038961,65.702591 19.206564,65.987938 
	C22.786058,66.310394 26.338894,67.040596 29.918919,67.173531 
	C30.920483,67.210716 31.977068,65.766159 33.381622,65.000763 
	C34.503414,64.999733 35.251999,64.999252 36.181488,65.216873 
	C36.581730,65.953033 36.801067,66.471085 36.777336,67.093399 
	C36.534264,69.595436 36.534264,71.993202 36.534264,74.390976 
	C37.057556,74.418694 37.580853,74.446419 38.104145,74.474136 
	C39.743240,72.972267 41.382336,71.470398 43.317410,70.121277 
	C45.408474,71.519249 47.203556,72.764465 48.999535,74.410522 
	C49.109470,76.513100 49.218521,78.214836 49.327568,79.916573 
	C49.720303,79.981316 50.113037,80.046059 50.505772,80.110794 
	C51.337097,78.404289 52.168419,76.697784 53.183144,75.142990 
	C53.602001,75.508934 53.815983,75.742813 54.207497,76.263748 
	C55.602867,77.021088 56.799229,77.511002 58.172737,78.272293 
	C59.566349,79.357140 60.782814,80.170616 61.969891,81.341064 
	C60.283180,83.481384 58.625854,85.264732 56.979519,87.037155 
	C56.990505,87.026245 56.974228,87.036255 56.839951,86.715027 
	C55.455181,85.278885 54.204689,84.163986 52.956451,83.030876 
	C52.958706,83.012672 52.974438,83.040787 52.861572,82.956436 
	C52.461781,82.770988 52.205540,82.830467 51.638763,82.921402 
	C49.864265,82.530624 48.430988,82.268974 46.989525,81.645966 
	C46.354904,80.091339 45.728470,78.898079 45.102039,77.704811 
	C44.402119,78.476372 43.702198,79.247932 42.620140,79.990341 
	C38.153824,78.646141 34.069637,77.331100 29.958405,75.666290 
	C27.777380,71.476448 25.632332,71.651627 21.590143,75.973297 
	C19.790007,76.003624 18.405674,76.024414 16.821241,75.778183 
	C13.344723,72.838844 12.203409,75.334091 11.389514,77.847214 
	C10.109018,81.801086 13.489450,91.194824 17.428543,93.988052 
	C19.573046,94.012527 21.288860,94.030922 23.195709,94.335381 
	C24.258821,96.748962 25.130898,98.876465 26.005299,101.259064 
	C26.010311,101.684235 26.013000,101.854309 25.589977,102.031036 
	C23.461437,102.041565 21.758610,102.045448 19.718788,102.060471 
	C18.591862,102.440994 17.801928,102.810379 17.025282,103.115204 
	C17.038572,103.050652 17.161674,103.097794 16.833004,103.142212 
	C15.338356,103.794754 14.172376,104.402870 13.005157,104.634613 
	C13.002536,103.505493 13.001153,102.752747 12.999819,101.550034 
	C12.783438,97.652939 12.567008,94.205803 12.438334,92.156364 
	C7.563679,91.663551 4.281840,91.331772 1.000000,91.000000 
	C1.000000,66.979103 1.000000,42.958210 1.330250,18.353088 
	C5.325698,10.845640 10.206218,5.232787 17.865816,2.534700 
	C18.362452,2.359760 18.627319,1.526844 19.000000,1.000000 
	C72.687561,1.000000 126.375122,1.000000 180.686310,1.324822 
	C186.890396,4.433666 192.922470,6.506892 196.658890,12.067927 
	C198.282288,14.484092 200.210327,16.695560 202.000000,18.999998 
	C202.000000,72.020897 202.000000,125.041786 201.676941,178.722198 
	C200.887009,181.545807 200.420151,183.709915 199.653961,186.054504 
	C196.359436,193.557724 189.440231,197.058624 184.000000,202.000000 
	C128.979111,202.000000 73.958206,202.000000 18.402874,201.729340 
	C17.549604,201.011139 17.230778,200.563599 16.899668,199.797974 
	C15.569102,199.000137 14.250821,198.520386 12.962254,198.029999 
	C12.991968,198.019363 12.984514,198.082047 12.891129,197.757919 
	C9.669412,193.124710 6.579834,188.786423 3.374513,184.535385 
	C2.841604,183.828613 1.804247,183.502182 0.999999,183.000000 
M70.109566,157.831039 
	C69.720825,157.807251 69.332092,157.783463 68.943352,157.759674 
	C68.937531,157.910110 68.931709,158.060547 68.925896,158.210999 
	C69.315819,158.206848 69.705734,158.202713 70.109566,157.831039 
M53.918900,156.711639 
	C53.951618,156.898682 53.984337,157.085739 54.017056,157.272781 
	C54.062073,157.088806 54.107094,156.904816 53.918900,156.711639 
M172.291077,33.917774 
	C172.102142,33.950878 171.913223,33.983986 171.724289,34.017090 
	C171.910156,34.062508 172.096024,34.107922 172.291077,33.917774 
M180.848740,87.257973 
	C180.960983,87.102760 181.073212,86.947548 181.185455,86.792336 
	C181.021378,86.890175 180.857300,86.988014 180.848740,87.257973 
z"/>
<path fill="#F8FCFD" opacity="1.000000" stroke="none" 
	d="
M202.000000,18.530289 
	C200.210327,16.695560 198.282288,14.484092 196.658890,12.067927 
	C192.922470,6.506892 186.890396,4.433666 181.154968,1.324822 
	C187.920105,1.000000 194.840210,1.000000 202.000000,1.000000 
	C202.000000,6.684634 202.000000,12.372608 202.000000,18.530289 
z"/>
<path fill="#F9FDFD" opacity="1.000000" stroke="none" 
	d="
M184.469711,202.000000 
	C189.440231,197.058624 196.359436,193.557724 199.870773,186.257294 
	C200.924591,186.519745 201.462296,186.759872 202.000000,187.000000 
	C202.000000,191.932404 202.000000,196.864792 202.000000,202.000000 
	C196.314240,202.000000 190.626831,202.000000 184.469711,202.000000 
z"/>
<path fill="#506BF6" opacity="1.000000" stroke="none" 
	d="
M1.000000,123.000000 
	C1.000000,121.933212 1.000000,120.866425 1.316153,119.255074 
	C2.754836,116.140343 3.877364,113.570168 5.314036,111.192955 
	C8.083937,111.924011 10.539695,112.462112 13.155648,113.319801 
	C14.528580,117.458450 17.352388,118.454689 20.917011,118.382202 
	C20.222073,121.147568 19.602594,123.551430 18.736578,125.954643 
	C18.490040,125.953995 17.996986,125.958992 17.810753,125.717773 
	C16.084229,125.319832 14.543938,125.163101 13.081057,124.635674 
	C13.018629,121.414612 12.878793,118.564247 12.738955,115.713882 
	C12.082081,115.624870 11.425207,115.535866 10.768332,115.446854 
	C10.178901,116.631241 9.589470,117.815620 9.000013,119.375000 
	C8.999991,120.500000 8.999996,121.250000 8.901867,122.332634 
	C6.392559,127.207985 3.618398,123.288315 1.000000,123.000000 
z"/>
<path fill="#516BF7" opacity="1.000000" stroke="none" 
	d="
M1.000000,123.468582 
	C3.618398,123.288315 6.392559,127.207985 9.171047,122.224304 
	C9.358919,120.855553 9.179479,119.927780 9.000038,119.000000 
	C9.589470,117.815620 10.178901,116.631241 10.768332,115.446854 
	C11.425207,115.535866 12.082081,115.624870 12.738955,115.713882 
	C12.878793,118.564247 13.018629,121.414612 13.080753,124.967804 
	C13.002133,126.113655 13.001228,126.556679 13.000321,126.999695 
	C11.723574,127.293999 10.454296,127.797920 9.168693,127.843735 
	C5.136395,127.987434 4.177556,129.616745 4.429251,133.802841 
	C4.643704,137.369537 2.652198,141.068848 1.318294,144.854752 
	C1.000000,137.979050 1.000000,130.958099 1.000000,123.468582 
z"/>
<path fill="#F9FDFD" opacity="1.000000" stroke="none" 
	d="
M18.530293,1.000000 
	C18.627319,1.526844 18.362452,2.359760 17.865816,2.534700 
	C10.206218,5.232787 5.325698,10.845640 1.330250,17.884430 
	C1.000000,12.405508 1.000000,6.811016 1.000000,1.000000 
	C6.685597,1.000000 12.373091,1.000000 18.530293,1.000000 
z"/>
<path fill="#516BF7" opacity="1.000000" stroke="none" 
	d="
M1.000000,91.458069 
	C4.281840,91.331772 7.563679,91.663551 12.438334,92.156364 
	C12.567008,94.205803 12.783438,97.652939 12.635180,101.479813 
	C8.513663,101.906372 4.756832,101.953186 1.000000,102.000000 
	C1.000000,98.638710 1.000000,95.277428 1.000000,91.458069 
z"/>
<path fill="#516BF7" opacity="1.000000" stroke="none" 
	d="
M1.000000,102.444160 
	C4.756832,101.953186 8.513663,101.906372 12.635133,101.929779 
	C13.001153,102.752747 13.002536,103.505493 13.005264,105.077553 
	C13.002892,108.264648 12.999172,110.632423 12.995453,113.000206 
	C10.539695,112.462112 8.083937,111.924011 5.022794,111.000870 
	C3.278273,110.410561 2.139136,110.205284 1.000000,110.000000 
	C1.000000,107.629440 1.000000,105.258888 1.000000,102.444160 
z"/>
<path fill="#FAFDFD" opacity="1.000000" stroke="none" 
	d="
M16.911951,200.116058 
	C17.230778,200.563599 17.549604,201.011139 17.934216,201.729340 
	C12.420412,202.000000 6.840825,202.000000 1.000000,202.000000 
	C1.000000,197.988144 1.000000,193.970734 1.356133,189.493469 
	C2.484774,189.753311 3.210419,190.532745 4.038224,191.181931 
	C7.001607,193.505844 9.999613,195.785583 12.984518,198.082031 
	C12.984514,198.082047 12.991968,198.019363 13.116247,198.330841 
	C14.464334,199.133560 15.688142,199.624802 16.911951,200.116058 
z"/>
<path fill="#596ECD" opacity="1.000000" stroke="none" 
	d="
M12.891132,197.757904 
	C9.999613,195.785583 7.001607,193.505844 4.038224,191.181931 
	C3.210419,190.532745 2.484774,189.753311 1.356133,189.016815 
	C1.000000,187.285645 1.000000,185.571289 0.999999,183.428467 
	C1.804247,183.502182 2.841604,183.828613 3.374513,184.535385 
	C6.579834,188.786423 9.669412,193.124710 12.891132,197.757904 
z"/>
<path fill="#516BF7" opacity="1.000000" stroke="none" 
	d="
M1.000000,110.449982 
	C2.139136,110.205284 3.278273,110.410561 4.708652,110.807922 
	C3.877364,113.570168 2.754836,116.140343 1.316153,118.855255 
	C1.000000,116.299988 1.000000,113.599968 1.000000,110.449982 
z"/>
<path fill="#E1F6FF" opacity="1.000000" stroke="none" 
	d="
M202.000000,186.555847 
	C201.462296,186.759872 200.924591,186.519745 200.170105,186.076813 
	C200.420151,183.709915 200.887009,181.545807 201.676941,179.190857 
	C202.000000,181.370560 202.000000,183.741104 202.000000,186.555847 
z"/>
<path fill="#FCFDFE" opacity="1.000000" stroke="none" 
	d="
M16.770744,40.043472 
	C17.148323,39.330246 17.525902,38.617020 18.282722,37.455170 
	C19.166445,36.359798 19.670923,35.713055 20.175404,35.066311 
	C21.241478,34.388653 22.307554,33.710995 24.153284,33.021183 
	C27.588148,32.864468 30.243282,32.595619 32.898582,32.593945 
	C73.731689,32.568195 114.565155,32.503502 155.397430,32.690437 
	C159.552673,32.709457 163.700775,34.289757 167.852188,35.145546 
	C167.852188,35.145546 167.946686,35.034733 168.013367,35.385323 
	C169.019119,36.865936 169.958191,37.995956 170.897247,39.125977 
	C170.897247,39.125980 170.921417,39.060417 170.899078,39.409241 
	C171.231476,40.859379 171.586182,41.960690 171.888885,43.524319 
	C171.851776,56.577267 171.866669,69.167900 171.493866,81.796112 
	C167.387192,80.980576 163.568649,80.406067 160.000641,79.130699 
	C158.662933,78.652542 157.084351,76.579178 157.025177,75.173759 
	C156.717361,67.864502 156.577240,60.521225 156.955490,53.219673 
	C157.200684,48.486206 155.848267,47.007561 150.949646,47.033352 
	C113.010612,47.233154 75.070068,47.146690 37.129986,47.148846 
	C35.501663,47.148937 33.873337,47.148857 31.423693,47.148857 
	C31.423693,53.350395 31.423693,59.051147 31.423693,65.223633 
	C26.143353,64.738052 21.722664,64.331520 17.597958,63.952209 
	C16.881424,62.489319 16.316179,61.335304 15.750934,60.181290 
	C15.937333,59.996033 16.006693,59.774185 15.970156,59.077599 
	C15.938188,58.092377 15.895075,57.545300 15.915096,56.558777 
	C16.003202,53.751259 16.028172,51.383183 16.331211,48.787453 
	C16.618679,47.372665 16.628080,46.185532 16.733335,44.678444 
	C16.809708,42.920147 16.790226,41.481808 16.770744,40.043472 
z"/>
<path fill="#FAFCFE" opacity="1.000000" stroke="none" 
	d="
M125.863472,159.114075 
	C125.863472,159.114075 125.747604,158.934006 125.465134,158.648315 
	C124.437828,157.910538 123.692993,157.458450 122.887955,156.791550 
	C122.716362,156.280731 122.514725,156.071899 122.151917,155.535767 
	C121.792305,152.670502 121.264091,150.220840 121.252190,147.768677 
	C121.141006,124.873093 121.118431,101.977089 121.462036,78.887329 
	C123.798492,78.975128 125.775848,79.116394 127.682365,79.561295 
	C139.904724,82.413383 152.111542,85.332108 164.611115,88.497482 
	C166.926025,89.198166 168.953293,89.630302 170.978470,90.032089 
	C170.976364,90.001740 170.929214,90.040192 171.226044,90.235031 
	C174.374146,91.948952 179.625229,91.125992 177.764252,97.151688 
	C177.296524,97.467003 177.123718,97.727150 176.785019,98.115486 
	C176.313004,98.444633 176.092545,98.702477 175.912109,98.949547 
	C175.952148,98.938774 175.938110,98.857048 175.553223,98.910477 
	C169.087189,100.591049 163.061966,102.493088 156.904678,103.746269 
	C152.962799,104.548569 151.597061,106.065102 151.634201,110.278000 
	C151.795044,128.524933 151.582382,146.776627 151.302094,165.023483 
	C151.276825,166.669006 149.795670,168.292175 148.990631,169.925735 
	C148.990631,169.925735 149.002762,169.992554 148.823700,169.714111 
	C147.385620,168.935852 146.126602,168.436050 144.823685,167.857056 
	C144.779800,167.777847 144.603683,167.820038 144.350220,167.550690 
	C142.061707,166.484177 140.026672,165.687012 138.009048,164.932648 
	C138.026474,164.975479 138.111893,164.940079 137.930908,164.685593 
	C137.163666,164.256775 136.577408,164.082443 136.002625,163.945465 
	C136.014114,163.982819 136.088699,163.959488 135.899628,163.717392 
	C135.137085,163.290741 134.563629,163.106186 134.003448,162.954010 
	C134.016708,162.986389 134.080566,162.957718 133.850464,162.701416 
	C131.034729,161.334747 128.449097,160.224411 125.863472,159.114075 
z"/>
<path fill="#5770F0" opacity="1.000000" stroke="none" 
	d="
M164.323471,88.228928 
	C152.111542,85.332108 139.904724,82.413383 127.682365,79.561295 
	C125.775848,79.116394 123.798492,78.975128 121.239029,79.225655 
	C120.412178,85.503036 120.200172,91.248215 119.606415,97.065887 
	C118.482132,98.951073 117.334656,100.706406 117.068375,102.586540 
	C116.009247,110.064690 115.423813,117.612579 114.268028,125.073448 
	C113.516647,129.923767 115.859001,135.931747 120.001160,138.337997 
	C120.006195,139.109207 120.000610,139.549973 119.673393,140.142838 
	C117.900101,144.529968 116.448448,148.764984 114.996796,153.000000 
	C111.826698,159.401047 105.433029,157.099854 100.108566,158.047180 
	C101.146706,157.348755 102.184837,156.650345 104.237473,155.269424 
	C101.779251,153.688416 99.750488,152.383621 97.501328,150.726303 
	C98.261612,148.802551 99.242294,147.231323 100.865654,144.630432 
	C97.837822,144.820892 96.418755,144.910156 94.999847,144.999710 
	C95.000000,145.000000 94.998878,144.998779 95.030685,144.629333 
	C97.089973,141.498886 99.117462,138.737900 101.313583,136.348114 
	C101.967072,141.239670 102.451935,145.760025 102.936569,150.278229 
	C106.261353,150.086533 109.473763,149.901306 112.838089,149.707321 
	C112.838089,144.804230 112.838089,140.262817 112.838089,135.415359 
	C108.747246,135.415359 104.982910,135.415359 101.302277,135.066193 
	C103.084648,133.711472 104.783333,132.705933 106.482010,131.700394 
	C106.414574,131.289230 106.347137,130.878067 106.279701,130.466904 
	C102.665497,130.820236 99.051292,131.173553 94.455589,131.622833 
	C98.981293,126.128784 96.493393,121.970078 92.924057,117.619980 
	C91.144257,113.574234 90.134453,109.283302 87.549011,106.410316 
	C85.026199,103.606918 83.898865,101.120834 84.754936,97.820221 
	C88.930519,104.938194 92.785896,111.888672 96.828354,118.728577 
	C97.627769,120.081215 99.059921,121.843819 100.349548,121.977516 
	C104.404655,122.397873 108.530869,122.132286 113.153351,122.132286 
	C113.153351,119.691002 113.152893,117.903252 113.153419,116.115494 
	C113.156860,104.476562 113.098892,92.837189 113.183533,81.198853 
	C113.251572,71.842873 116.983795,68.912300 126.035126,70.917809 
	C131.291534,72.082466 136.537521,73.294060 142.714905,74.694641 
	C142.404495,69.229912 142.144440,64.651711 141.938751,59.798004 
	C142.023209,59.337646 142.053299,59.152790 142.388062,59.095795 
	C144.046844,62.807533 145.400940,66.391418 146.486908,69.265625 
	C146.486908,72.034660 146.486908,74.192062 146.486908,76.448906 
	C146.334564,76.462486 145.855591,76.487190 145.381790,76.550606 
	C143.531143,76.798309 141.671921,77.013435 139.858444,77.427223 
	C139.751892,77.451546 139.787094,79.778923 140.151047,79.906235 
	C142.266861,80.646416 144.487442,81.129051 146.705826,81.500191 
	C147.171265,81.578049 147.746826,80.771660 148.320541,80.463867 
	C153.239212,77.824951 153.412018,73.672188 152.280731,68.889977 
	C153.338547,63.348637 154.326614,57.941425 154.814056,52.489452 
	C155.009842,50.299606 153.789917,48.505928 150.601196,49.959984 
	C147.724411,49.663116 145.245621,49.401424 142.265610,49.086811 
	C142.688171,51.508137 142.917175,52.820255 143.146164,54.132378 
	C139.200531,50.383221 135.241394,48.058975 129.663757,49.084328 
	C125.777489,49.798752 121.746330,49.943382 117.778412,49.958664 
	C96.994156,50.038723 76.209267,50.036648 55.424992,49.957722 
	C51.841782,49.944115 48.237431,49.590363 44.683334,49.100170 
	C38.204681,48.206612 34.668007,50.728096 33.868980,57.076733 
	C33.620667,59.049709 33.331337,61.017525 33.039986,63.323006 
	C33.015598,64.105972 33.012005,64.553642 33.008415,65.001305 
	C31.977068,65.766159 30.920483,67.210716 29.918919,67.173531 
	C26.338894,67.040596 22.786058,66.310394 19.206564,65.987938 
	C16.038961,65.702591 14.754550,64.190750 15.593042,60.622871 
	C16.316179,61.335304 16.881424,62.489319 17.597958,63.952209 
	C21.722664,64.331520 26.143353,64.738052 31.423693,65.223633 
	C31.423693,59.051147 31.423693,53.350395 31.423693,47.148857 
	C33.873337,47.148857 35.501663,47.148937 37.129986,47.148846 
	C75.070068,47.146690 113.010612,47.233154 150.949646,47.033352 
	C155.848267,47.007561 157.200684,48.486206 156.955490,53.219673 
	C156.577240,60.521225 156.717361,67.864502 157.025177,75.173759 
	C157.084351,76.579178 158.662933,78.652542 160.000641,79.130699 
	C163.568649,80.406067 167.387192,80.980576 171.624161,81.916489 
	C172.481445,81.999550 172.820724,81.999802 173.159988,82.000046 
	C173.928833,83.935974 174.697678,85.871887 175.590088,88.260376 
	C174.118851,89.155365 172.524033,89.597778 170.929214,90.040192 
	C170.929214,90.040192 170.976364,90.001740 170.803772,89.685043 
	C168.528625,88.988541 166.426041,88.608734 164.323471,88.228928 
z"/>
<path fill="#F8FBFD" opacity="1.000000" stroke="none" 
	d="
M78.998779,151.154648 
	C78.554222,151.114105 78.109665,151.073547 77.022377,151.015808 
	C75.953651,150.943771 75.527649,150.888901 75.101654,150.834015 
	C75.101654,150.834015 75.069511,150.917267 74.985115,150.576141 
	C73.762856,143.493134 73.561493,136.402771 71.219734,130.108810 
	C68.946884,124.000084 64.476837,118.708855 60.782623,112.937500 
	C60.593548,112.816383 60.154922,112.720039 60.168716,112.534912 
	C60.182510,112.349792 60.023033,112.014519 60.016315,111.675705 
	C58.418087,109.802582 56.826572,108.268265 55.073372,106.440170 
	C44.373596,97.133186 32.526840,91.722015 18.189713,92.588921 
	C17.759962,92.140945 17.445963,91.950905 17.056517,91.315887 
	C17.023373,86.314568 17.065676,81.758232 17.521389,77.213455 
	C32.488750,77.627342 45.780128,82.060913 58.230705,89.972763 
	C58.859341,90.448616 59.297890,90.737717 59.924801,91.295410 
	C61.036598,92.116943 61.960033,92.669899 62.902496,93.162308 
	C62.921532,93.101761 62.799816,93.065720 62.892120,93.335663 
	C63.317104,93.761513 63.649788,93.917419 63.984619,94.041473 
	C63.986767,94.009613 63.924744,94.024773 63.986217,94.296951 
	C64.363289,94.737801 64.678886,94.906471 64.992149,95.042740 
	C64.989815,95.010338 64.927795,95.029709 65.048508,95.301552 
	C65.785797,96.047646 66.402367,96.521896 67.013657,96.993652 
	C67.008369,96.991142 67.003113,96.980621 67.113876,97.256172 
	C67.710770,97.839226 68.196884,98.146729 68.632462,98.454071 
	C68.581924,98.453896 68.582054,98.554962 68.725159,98.840546 
	C69.806488,100.015938 70.744728,100.905746 71.670013,101.853699 
	C71.657074,101.911842 71.771049,101.946526 71.889771,102.269867 
	C73.300995,104.114487 74.593498,105.635750 76.025574,107.433670 
	C77.067383,108.829544 77.969612,109.948769 78.920189,111.357498 
	C79.338226,112.095421 79.707924,112.543839 80.121445,113.349190 
	C85.779694,124.991623 89.947525,136.617310 89.128609,149.372131 
	C85.384735,150.030930 82.191757,150.592789 78.998779,151.154648 
z"/>
<path fill="#F7FAFD" opacity="1.000000" stroke="none" 
	d="
M51.982159,151.166458 
	C51.982159,151.166458 51.584396,151.018372 51.312447,150.594666 
	C50.391319,148.358047 49.742138,146.545135 49.092960,144.732239 
	C49.092960,144.732239 49.131878,144.493790 49.354366,144.251160 
	C49.402584,143.646103 49.228313,143.283676 49.054039,142.921249 
	C49.054039,142.921249 49.029469,142.992630 49.065739,142.586334 
	C47.942314,132.706085 42.513313,126.216980 34.543907,121.378281 
	C34.474972,121.300774 34.311424,121.428406 34.101730,121.174850 
	C31.308413,119.861244 28.724791,118.801208 26.142227,117.722733 
	C26.143288,117.704292 26.136181,117.667252 25.826859,117.442467 
	C22.777111,116.700592 20.036686,116.183510 17.161674,115.641029 
	C17.161674,111.343071 17.161674,107.220436 17.161674,103.097794 
	C17.161674,103.097794 17.038572,103.050652 17.406435,103.107559 
	C18.530241,103.103172 19.286186,103.041862 20.416834,103.090591 
	C25.185480,104.159958 29.579420,105.119286 33.982395,106.047897 
	C33.991428,106.017181 33.933331,106.044106 34.145828,106.310699 
	C35.828388,107.184509 37.298454,107.791718 38.804001,108.320984 
	C38.839474,108.243027 38.681831,108.175995 38.819298,108.421951 
	C39.309139,108.769745 39.661514,108.871582 40.263649,109.194870 
	C43.246590,111.370567 45.979763,113.324799 48.822273,115.499924 
	C49.133434,115.998886 49.400440,116.181824 49.839546,116.494080 
	C50.156712,116.992767 50.429195,117.172798 50.881287,117.531952 
	C51.778503,118.666382 52.558353,119.527466 53.338058,120.499573 
	C53.337917,120.610580 53.554379,120.660004 53.703011,120.940155 
	C55.489452,123.567223 57.127266,125.914139 58.779606,128.206787 
	C58.794132,128.152527 58.711933,128.229126 58.789631,128.582764 
	C59.848339,131.185013 60.829346,133.433594 61.725967,135.746704 
	C61.641579,135.811218 61.758133,135.988831 61.798706,136.406647 
	C64.949402,150.371826 64.949402,150.371826 51.982159,151.166458 
z"/>
<path fill="#F7FBFD" opacity="1.000000" stroke="none" 
	d="
M22.982803,149.213333 
	C22.982803,149.213333 22.679882,148.962219 22.352230,148.683899 
	C21.693945,148.263290 21.363310,148.121017 21.021091,147.983032 
	C21.009508,147.987320 21.010111,147.959625 20.834496,147.675568 
	C19.361065,145.268173 18.063248,143.144867 16.798862,140.683899 
	C16.768002,139.900116 16.703711,139.453979 16.723347,138.561310 
	C16.749268,135.098785 16.691265,132.082825 16.715395,128.735687 
	C16.868221,127.955124 16.938915,127.505745 17.418211,127.038689 
	C27.071037,127.442085 33.308697,132.508865 37.949173,140.043594 
	C37.949173,140.043594 37.996178,139.998566 37.999908,140.402374 
	C38.587223,143.824585 39.170807,146.843018 39.754391,149.861435 
	C39.754391,149.861435 39.860031,149.873062 39.445107,149.904785 
	C34.022560,149.955200 29.014936,149.973862 24.007311,149.992554 
	C24.007311,149.992554 24.000000,150.000000 23.901524,149.786697 
	C23.603868,149.284317 23.330456,149.164291 22.982803,149.213333 
z"/>
<path fill="#536CF4" opacity="1.000000" stroke="none" 
	d="
M71.771049,101.946526 
	C71.771049,101.946526 71.657074,101.911842 71.667427,101.459656 
	C70.645874,100.189972 69.613968,99.372467 68.582054,98.554962 
	C68.582054,98.554962 68.581924,98.453896 68.523880,98.174606 
	C67.978256,97.590416 67.490685,97.285515 67.003113,96.980621 
	C67.003113,96.980621 67.008369,96.991142 66.922272,96.698929 
	C66.200043,95.947723 65.563919,95.488716 64.927795,95.029709 
	C64.927795,95.029709 64.989815,95.010338 64.859573,94.824478 
	C64.461128,94.433998 64.192940,94.229385 63.924744,94.024773 
	C63.924744,94.024773 63.986767,94.009613 63.831886,93.826324 
	C63.384605,93.450607 63.092209,93.258163 62.799816,93.065720 
	C62.799816,93.065720 62.921532,93.101761 62.804153,92.823502 
	C61.703327,92.039101 60.719883,91.532959 59.736439,91.026825 
	C59.297890,90.737717 58.859341,90.448616 58.165382,89.684364 
	C57.596161,88.488831 57.282345,87.768456 56.968529,87.048073 
	C58.625854,85.264732 60.283180,83.481384 62.227936,81.148453 
	C63.108677,80.354904 63.701981,80.110947 64.487015,79.884338 
	C64.678741,79.901688 65.009102,80.099449 65.191971,80.259796 
	C65.629684,80.623459 65.905937,80.791626 66.438416,81.008926 
	C66.673248,81.093201 66.973137,81.492020 67.020416,81.822083 
	C69.445625,85.337311 70.891502,89.867691 76.365509,88.611053 
	C76.370155,88.631104 76.409912,88.641792 76.329208,89.047852 
	C75.811501,95.352348 80.415047,96.181160 84.456421,97.587173 
	C84.476089,97.579185 84.500336,97.613960 84.500336,97.613960 
	C83.898865,101.120834 85.026199,103.606918 87.549011,106.410316 
	C90.134453,109.283302 91.144257,113.574234 92.610489,117.780960 
	C90.918785,120.545334 89.460312,122.773293 87.817757,124.703568 
	C87.420242,121.939217 87.206795,119.472557 87.260635,116.890213 
	C89.299522,113.768547 87.149681,113.386818 84.899651,112.759048 
	C83.222969,112.674461 81.650299,112.833351 80.077629,112.992249 
	C79.707924,112.543839 79.338226,112.095421 79.085159,111.114952 
	C78.160309,109.049164 77.118828,107.515434 76.041382,105.737762 
	C76.005424,105.493828 75.958183,105.002953 76.281517,104.915024 
	C77.085136,103.747932 77.565422,102.668770 78.045700,101.589615 
	C76.377419,101.692177 74.709145,101.794746 72.723175,101.903648 
	C72.194016,101.922165 71.982529,101.934341 71.771049,101.946526 
z"/>
<path fill="#6878D3" opacity="1.000000" stroke="none" 
	d="
M149.184082,170.158218 
	C149.795670,168.292175 151.276825,166.669006 151.302094,165.023483 
	C151.582382,146.776627 151.795044,128.524933 151.634201,110.278000 
	C151.597061,106.065102 152.962799,104.548569 156.904678,103.746269 
	C163.061966,102.493088 169.087189,100.591049 175.360138,99.216431 
	C171.265839,100.913658 167.052124,102.667542 162.668106,103.694084 
	C159.758209,104.375473 159.152908,105.530197 159.820328,108.010498 
	C158.010864,107.336945 156.551575,106.702965 154.744568,106.237000 
	C154.013885,106.922142 153.305862,107.433762 153.296967,107.957253 
	C153.173477,115.229736 153.117218,122.504051 153.170547,129.777008 
	C153.173523,130.183014 154.274765,130.580963 154.925262,131.416840 
	C155.123383,134.938080 153.936523,138.537125 157.868469,140.288757 
	C156.609894,142.741211 154.877686,144.926407 154.801682,147.167725 
	C154.543610,154.779984 154.870667,162.412094 154.945175,170.068817 
	C154.916107,170.101013 154.858063,170.165512 154.522003,170.167511 
	C153.125900,170.490829 152.065826,170.812134 151.005768,171.133438 
	C150.463028,170.885864 149.920288,170.638290 149.184082,170.158218 
z"/>
<path fill="#5E70DD" opacity="1.000000" stroke="none" 
	d="
M154.864807,130.982666 
	C154.274765,130.580963 153.173523,130.183014 153.170547,129.777008 
	C153.117218,122.504051 153.173477,115.229736 153.296967,107.957253 
	C153.305862,107.433762 154.013885,106.922142 154.711517,106.651047 
	C154.374237,110.567879 155.251450,113.459900 159.054291,115.295708 
	C158.979034,116.631287 158.926147,117.521774 158.641983,118.317818 
	C158.410706,118.223373 157.993988,117.947739 157.826935,117.726189 
	C156.796738,117.716644 155.933594,117.928650 155.046295,118.538910 
	C155.191162,120.377586 154.927490,122.078987 155.609619,123.209961 
	C157.731384,126.727936 169.676361,130.214996 173.716400,128.759598 
	C175.077377,129.041794 176.453415,129.611420 177.795944,129.541183 
	C180.003036,129.425690 182.188431,128.895508 184.480331,128.743469 
	C184.577698,128.946762 184.149246,128.997742 183.776886,129.047226 
	C177.282059,131.807846 171.159561,134.518982 164.790070,137.217957 
	C164.206451,137.373627 164.051239,137.645142 164.041260,138.028931 
	C164.005066,138.037506 164.022659,138.109787 163.643982,138.114410 
	C162.050247,138.010284 160.835220,137.901535 158.462662,137.689163 
	C160.847305,135.926346 162.333740,134.827515 164.310822,133.365982 
	C161.507751,131.891006 159.084335,130.536880 156.562180,129.402130 
	C156.288773,129.279114 155.444351,130.425232 154.864807,130.982666 
z"/>
<path fill="#5770F0" opacity="1.000000" stroke="none" 
	d="
M86.993355,117.005898 
	C87.206795,119.472557 87.420242,121.939217 87.827377,125.083832 
	C88.393425,126.994385 88.374153,128.740280 89.203918,129.373322 
	C93.461754,132.621719 93.326683,136.692047 92.394691,141.321198 
	C92.191322,142.331345 94.075905,143.761856 94.998878,144.998779 
	C94.998878,144.998779 95.000000,145.000000 94.998337,145.415741 
	C94.994110,147.217316 94.991547,148.603134 94.988983,149.988968 
	C92.934898,151.040207 90.611679,151.769073 88.884026,153.211349 
	C85.524048,156.016342 81.773567,155.664780 79.092522,151.507462 
	C82.191757,150.592789 85.384735,150.030930 89.128609,149.372131 
	C89.947525,136.617310 85.779694,124.991623 80.121445,113.349190 
	C81.650299,112.833351 83.222969,112.674461 84.922958,113.096291 
	C85.697975,114.786644 86.345665,115.896271 86.993355,117.005898 
z"/>
<path fill="#516BF3" opacity="1.000000" stroke="none" 
	d="
M160.170502,108.050072 
	C159.152908,105.530197 159.758209,104.375473 162.668106,103.694084 
	C167.052124,102.667542 171.265839,100.913658 175.745026,99.162994 
	C175.938110,98.857048 175.952148,98.938774 176.141525,98.845078 
	C176.566132,98.515648 176.801361,98.279922 177.036575,98.044189 
	C177.123718,97.727150 177.296524,97.467003 178.099609,97.150879 
	C179.089691,97.012337 179.535126,96.986649 179.980560,96.960968 
	C181.739548,101.615524 183.498535,106.270088 185.663651,111.999344 
	C184.004578,111.080750 183.194977,110.916878 183.013458,110.487488 
	C181.405899,106.684746 179.129211,106.641258 176.071304,108.889290 
	C174.787430,109.833145 173.137985,110.279732 170.940430,110.834106 
	C168.196259,110.456734 166.166367,110.197624 163.968231,109.672272 
	C163.206192,109.219940 162.612396,109.033844 161.771790,108.680710 
	C161.158920,108.358589 160.792847,108.203514 160.363068,108.107910 
	C160.299393,108.167397 160.170502,108.050072 160.170502,108.050072 
z"/>
<path fill="#F1F7FE" opacity="1.000000" stroke="none" 
	d="
M159.820328,108.010498 
	C160.170502,108.050072 160.299393,108.167397 160.547455,108.375900 
	C161.203201,108.672188 161.610886,108.759964 162.018585,108.847748 
	C162.612396,109.033844 163.206192,109.219940 164.049652,110.014450 
	C167.094666,111.913223 169.890045,113.203575 172.685425,114.493935 
	C172.685425,114.493935 172.889694,114.431427 172.996201,114.668686 
	C174.048935,115.311775 174.995148,115.717613 175.956604,116.091644 
	C175.971848,116.059845 175.902573,116.073059 176.097748,116.348793 
	C177.712540,117.259918 179.132187,117.895309 180.551819,118.530701 
	C180.551819,118.530701 180.634781,118.595947 180.883057,118.782936 
	C182.428619,119.665771 183.725906,120.361626 185.023178,121.057480 
	C185.023178,121.057472 185.056686,121.509079 184.786987,121.831543 
	C184.307480,122.428009 184.097687,122.702019 183.887894,122.976028 
	C183.887894,122.976021 183.989258,122.997009 183.654236,122.991806 
	C183.001450,123.300797 182.683685,123.614998 182.365936,123.929199 
	C182.365936,123.929207 182.330582,123.781273 181.916351,123.869507 
	C181.319962,124.097771 181.137802,124.237801 180.955643,124.377823 
	C180.514420,124.427048 180.073212,124.476273 179.009048,124.352966 
	C177.945328,124.058487 177.504532,123.936554 176.845398,123.568993 
	C174.822906,122.527321 173.018753,121.731277 171.006317,120.697876 
	C170.213165,120.244003 169.628342,120.027481 168.886871,119.598747 
	C168.233643,119.233177 167.737045,119.079811 167.030731,118.688019 
	C166.230820,118.236443 165.640625,118.023315 164.926514,117.629028 
	C164.568436,117.244522 164.296661,117.153511 163.768677,117.045380 
	C163.382050,116.894371 163.214050,116.872841 163.046936,116.888481 
	C163.047836,116.925652 163.122131,116.922264 162.936691,116.676201 
	C162.181503,116.218987 161.611740,116.007835 160.859039,115.580589 
	C160.142944,115.193199 159.609802,115.021912 159.076645,114.850616 
	C155.251450,113.459900 154.374237,110.567879 155.059235,106.483047 
	C156.551575,106.702965 158.010864,107.336945 159.820328,108.010498 
z"/>
<path fill="#5770F0" opacity="1.000000" stroke="none" 
	d="
M167.803345,34.802635 
	C163.700775,34.289757 159.552673,32.709457 155.397430,32.690437 
	C114.565155,32.503502 73.731689,32.568195 32.898582,32.593945 
	C30.243282,32.595619 27.588148,32.864468 24.465801,32.949986 
	C25.136660,31.982010 26.274652,31.073082 27.918528,30.438147 
	C30.290636,31.132940 32.156227,31.917749 34.023178,31.920988 
	C74.423248,31.991106 114.823494,31.987825 155.223602,31.931221 
	C157.153732,31.928516 159.082993,31.305679 161.012650,30.971634 
	C161.332962,29.151253 161.833862,27.304476 163.975128,29.428555 
	C165.448593,30.890196 166.509308,32.767944 167.803345,34.802635 
z"/>
<path fill="#566DD3" opacity="1.000000" stroke="none" 
	d="
M160.542664,30.972851 
	C159.082993,31.305679 157.153732,31.928516 155.223602,31.931221 
	C114.823494,31.987825 74.423248,31.991106 34.023178,31.920988 
	C32.156227,31.917749 30.290636,31.132940 28.249228,30.380049 
	C28.498728,30.050541 28.923412,30.053125 29.892138,30.218473 
	C30.961948,30.549282 31.487717,30.717325 32.013485,30.885368 
	C74.699875,30.914934 117.386269,30.944500 160.542664,30.972851 
z"/>
<path fill="#556EEF" opacity="1.000000" stroke="none" 
	d="
M60.971695,113.058624 
	C64.476837,118.708855 68.946884,124.000084 71.219734,130.108810 
	C73.561493,136.402771 73.762856,143.493134 75.027237,150.561417 
	C70.858215,150.947327 70.350159,149.288452 70.942787,145.003723 
	C71.579811,140.398071 70.633904,135.287781 69.120712,130.824127 
	C68.585083,129.244125 64.345329,128.919800 61.011684,128.038635 
	C59.721786,128.113098 59.216862,128.171112 58.711933,128.229126 
	C58.711933,128.229126 58.794132,128.152527 58.831593,127.799614 
	C58.913174,126.630524 58.957294,125.814346 59.378475,125.007065 
	C61.608059,124.844475 63.460583,124.672989 65.313110,124.501495 
	C64.517448,122.859428 63.591972,121.265625 62.959038,119.563057 
	C62.170452,117.441803 61.623173,115.230850 60.971695,113.058624 
z"/>
<path fill="#ECF4FD" opacity="1.000000" stroke="none" 
	d="
M157.993988,117.947739 
	C157.993988,117.947739 158.410706,118.223373 158.855499,118.568878 
	C164.368607,121.665276 169.436890,124.416153 174.505188,127.167030 
	C174.505188,127.167030 174.602249,127.407974 174.449097,127.631821 
	C174.123459,128.225250 173.950958,128.594833 173.778473,128.964432 
	C173.778473,128.964432 173.842697,128.833145 173.779541,128.796371 
	C169.676361,130.214996 157.731384,126.727936 155.609619,123.209961 
	C154.927490,122.078987 155.191162,120.377586 155.414948,118.546783 
	C156.536499,118.086845 157.265244,118.017288 157.993988,117.947739 
z"/>
<path fill="#516BF8" opacity="1.000000" stroke="none" 
	d="
M26.002975,101.003975 
	C25.130898,98.876465 24.258821,96.748962 23.580185,94.334290 
	C28.515972,95.365730 33.258320,96.684341 38.030590,98.359657 
	C39.372616,101.138557 40.684719,103.560760 41.596245,105.987717 
	C40.127445,106.003624 39.059223,106.014771 37.585159,106.010994 
	C36.097321,106.012085 35.015327,106.028091 33.933331,106.044106 
	C33.933331,106.044106 33.991428,106.017181 33.941940,105.756943 
	C33.590996,104.999809 33.289536,104.502914 32.881706,103.655991 
	C30.517883,102.538635 28.260429,101.771301 26.002975,101.003975 
z"/>
<path fill="#5670F0" opacity="1.000000" stroke="none" 
	d="
M17.107979,77.201889 
	C17.065676,81.758232 17.023373,86.314568 17.017071,91.619522 
	C17.039921,92.571877 17.026768,92.775627 17.009905,93.230026 
	C17.004080,93.647766 17.001966,93.814865 16.999853,93.981964 
	C13.489450,91.194824 10.109018,81.801086 11.389514,77.847214 
	C12.203409,75.334091 13.344723,72.838844 16.838978,76.067398 
	C17.073870,76.816368 17.090925,77.009125 17.107979,77.201889 
z"/>
<path fill="#6779DE" opacity="1.000000" stroke="none" 
	d="
M17.521389,77.213455 
	C17.090925,77.009125 17.073870,76.816368 17.039078,76.334412 
	C18.405674,76.024414 19.790007,76.003624 22.032877,75.987404 
	C25.256094,76.000000 27.620773,76.008026 29.985455,76.016060 
	C34.069637,77.331100 38.153824,78.646141 42.931053,80.067352 
	C44.748638,80.784790 45.873173,81.396057 46.997711,82.007324 
	C48.430988,82.268974 49.864265,82.530624 51.887653,82.922707 
	C52.477764,83.053139 52.974438,83.040787 52.974438,83.040787 
	C52.974438,83.040787 52.958706,83.012672 53.001213,83.372948 
	C54.353893,84.834236 55.664059,85.935242 56.974228,87.036255 
	C56.974228,87.036255 56.990505,87.026245 56.979515,87.037155 
	C57.282345,87.768456 57.596161,88.488831 57.975296,89.497612 
	C45.780128,82.060913 32.488750,77.627342 17.521389,77.213455 
z"/>
<path fill="#5770F0" opacity="1.000000" stroke="none" 
	d="
M64.295280,79.866989 
	C63.701981,80.110947 63.108677,80.354904 62.257324,80.791473 
	C60.782814,80.170616 59.566349,79.357140 58.027298,77.964294 
	C56.472637,76.922066 55.240566,76.459206 54.008495,75.996338 
	C53.815983,75.742813 53.602001,75.508934 52.891296,74.952660 
	C51.276913,74.410316 50.137775,74.209999 48.998642,74.009689 
	C47.203556,72.764465 45.408474,71.519249 43.312393,69.708450 
	C43.006886,67.762115 43.002377,66.381363 43.000294,64.599136 
	C43.960785,62.456486 44.918846,60.715317 45.941284,59.296276 
	C46.047573,59.833363 46.089481,60.048317 46.101837,60.603523 
	C43.980427,68.008255 44.196171,68.500481 50.417877,71.085052 
	C51.644466,71.594589 52.949795,72.008759 54.039860,72.735367 
	C57.503803,75.044365 60.883205,77.480186 64.295280,79.866989 
z"/>
<path fill="#5870E9" opacity="1.000000" stroke="none" 
	d="
M17.428543,93.988052 
	C17.001966,93.814865 17.004080,93.647766 17.333473,93.204384 
	C17.875654,92.901016 18.090559,92.873932 18.305462,92.846848 
	C32.526840,91.722015 44.373596,97.133186 54.969906,106.555984 
	C55.028122,106.965591 54.820450,107.196571 54.468239,107.117645 
	C52.455788,106.326759 50.701714,105.775383 49.153934,104.870972 
	C45.385227,102.668816 41.712215,100.302910 38.000664,98.002953 
	C33.258320,96.684341 28.515972,95.365730 23.389149,94.048218 
	C21.288860,94.030922 19.573046,94.012527 17.428543,93.988052 
z"/>
<path fill="#5670F0" opacity="1.000000" stroke="none" 
	d="
M40.003288,128.973145 
	C39.761597,130.811813 39.519905,132.650467 38.843971,134.559235 
	C34.604290,131.760117 30.798853,128.890900 27.314861,125.871689 
	C28.747570,124.174400 29.858831,122.627098 31.293421,121.194359 
	C32.514973,121.348747 33.413200,121.388580 34.311424,121.428406 
	C34.311424,121.428406 34.474972,121.300774 34.493622,121.742767 
	C36.342609,124.447548 38.172947,126.710342 40.003288,128.973145 
z"/>
<path fill="#6072E2" opacity="1.000000" stroke="none" 
	d="
M174.832947,127.065056 
	C169.436890,124.416153 164.368607,121.665276 159.086792,118.663330 
	C158.926147,117.521774 158.979034,116.631287 159.054291,115.295708 
	C159.609802,115.021912 160.142944,115.193199 161.070053,115.798264 
	C162.016708,116.462120 162.569427,116.692192 163.122131,116.922264 
	C163.122131,116.922264 163.047836,116.925652 163.132355,117.001152 
	C163.216858,117.076653 163.583145,117.248024 163.583145,117.248024 
	C163.583145,117.248024 163.987274,117.174850 163.987274,117.174850 
	C164.296661,117.153511 164.568436,117.244522 165.152908,117.847076 
	C166.082321,118.473000 166.661392,118.699730 167.240463,118.926453 
	C167.737045,119.079811 168.233643,119.233177 169.109497,119.818604 
	C170.064056,120.478867 170.639343,120.707054 171.214615,120.935242 
	C173.018753,121.731277 174.822906,122.527321 176.832870,123.891998 
	C177.040070,124.676048 177.041443,124.891457 177.042831,125.106873 
	C176.415466,125.725609 175.788086,126.344345 174.832947,127.065056 
z"/>
<path fill="#6878D3" opacity="1.000000" stroke="none" 
	d="
M119.995041,139.990723 
	C120.000610,139.549973 120.006195,139.109207 120.010529,137.868561 
	C120.002243,123.710228 119.995209,110.351814 119.988174,96.993393 
	C120.200172,91.248215 120.412178,85.503036 120.847183,79.419525 
	C121.118431,101.977089 121.141006,124.873093 121.252190,147.768677 
	C121.264091,150.220840 121.792305,152.670502 121.845245,155.575211 
	C121.405212,156.055649 121.200928,156.082184 120.996651,156.108704 
	C120.660019,155.291061 120.323387,154.473404 119.971283,152.860703 
	C119.968887,148.040665 119.981964,144.015701 119.995041,139.990723 
z"/>
<path fill="#5770F0" opacity="1.000000" stroke="none" 
	d="
M144.603683,167.820038 
	C144.603683,167.820038 144.779800,167.777847 144.957794,168.121399 
	C145.424530,168.975906 145.713272,169.486877 146.001999,169.997833 
	C141.569244,170.247711 137.136139,170.633133 132.704102,170.621017 
	C131.917603,170.618866 130.770920,169.078400 130.442169,168.041656 
	C130.013306,166.689133 130.234131,165.130585 130.522659,163.317917 
	C131.940125,162.969330 133.010345,162.963531 134.080566,162.957718 
	C134.080566,162.957718 134.016708,162.986389 134.220795,163.162079 
	C134.979477,163.545013 135.534088,163.752258 136.088699,163.959488 
	C136.088699,163.959488 136.014114,163.982819 136.218491,164.159912 
	C136.985870,164.538025 137.548874,164.739059 138.111893,164.940094 
	C138.111893,164.940079 138.026474,164.975479 138.252609,165.200867 
	C140.520386,166.224167 142.562042,167.022110 144.603683,167.820038 
z"/>
<path fill="#5870E9" opacity="1.000000" stroke="none" 
	d="
M16.833004,103.142212 
	C17.161674,107.220436 17.161674,111.343071 17.161674,115.641029 
	C20.036686,116.183510 22.777111,116.700592 25.403114,117.519325 
	C23.856621,117.887550 22.424545,117.954124 20.992472,118.020706 
	C17.352388,118.454689 14.528580,117.458450 13.155649,113.319801 
	C12.999172,110.632423 13.002892,108.264648 13.006502,105.453926 
	C14.172376,104.402870 15.338356,103.794754 16.833004,103.142212 
z"/>
<path fill="#5870E9" opacity="1.000000" stroke="none" 
	d="
M40.272049,129.169083 
	C38.172947,126.710342 36.342609,124.447548 34.562557,121.820267 
	C42.513313,126.216980 47.942314,132.706085 49.103119,142.591614 
	C48.139294,141.540237 47.174358,140.077286 46.033348,138.002228 
	C45.248051,136.594131 44.638824,135.798172 44.029594,135.002197 
	C42.866669,133.123138 41.703743,131.244080 40.272049,129.169083 
z"/>
<path fill="#5870E9" opacity="1.000000" stroke="none" 
	d="
M26.993414,126.021675 
	C30.798853,128.890900 34.604290,131.760117 38.686543,134.812378 
	C38.644337,136.430801 38.325321,137.866180 37.977737,139.672577 
	C33.308697,132.508865 27.071037,127.442085 17.564945,126.840393 
	C17.513830,126.405823 17.745132,126.172234 17.996986,125.958992 
	C17.996986,125.958992 18.490040,125.953995 19.076307,125.960686 
	C20.115234,125.965302 20.567892,125.963226 21.446083,125.969437 
	C23.578880,125.992378 25.286146,126.007027 26.993414,126.021675 
z"/>
<path fill="#5D6EC1" opacity="1.000000" stroke="none" 
	d="
M173.140488,81.595428 
	C172.820724,81.999802 172.481445,81.999550 172.011871,81.878914 
	C171.866669,69.167900 171.851776,56.577267 172.174225,43.471718 
	C172.702530,42.925968 172.893478,42.895145 173.084427,42.864319 
	C173.255142,50.992477 173.425873,59.120636 173.680008,67.967499 
	C173.802017,70.446449 173.840622,72.206688 173.879227,73.966934 
	C173.626480,76.374893 173.373734,78.782852 173.140488,81.595428 
z"/>
<path fill="#536CF4" opacity="1.000000" stroke="none" 
	d="
M42.997864,65.000610 
	C43.002377,66.381363 43.006886,67.762115 43.016411,69.555695 
	C41.382336,71.470398 39.743240,72.972267 38.104145,74.474136 
	C37.580853,74.446419 37.057556,74.418694 36.534264,74.390976 
	C36.534264,71.993202 36.534264,69.595436 37.100849,67.059029 
	C38.444111,66.281654 39.220783,65.642906 40.372608,65.003204 
	C41.497791,65.001694 42.247829,65.001152 42.997864,65.000610 
z"/>
<path fill="#506AFA" opacity="1.000000" stroke="none" 
	d="
M119.673401,140.142838 
	C119.981964,144.015701 119.968887,148.040665 119.926140,152.527023 
	C118.536858,152.992310 117.177254,152.996216 115.407211,153.000061 
	C116.448448,148.764984 117.900101,144.529968 119.673401,140.142838 
z"/>
<path fill="#6878D3" opacity="1.000000" stroke="none" 
	d="
M184.149246,128.997742 
	C184.149246,128.997742 184.577698,128.946762 184.792023,128.922852 
	C185.234390,137.586945 185.633881,146.277298 185.514908,154.960556 
	C185.495972,156.343094 183.147827,157.693726 181.434631,159.026764 
	C180.992737,158.994431 180.841202,158.805801 181.051392,158.528137 
	C182.419312,156.684998 184.542679,155.137741 184.572601,153.551010 
	C184.726929,145.372162 184.344406,137.183182 184.149246,128.997742 
z"/>
<path fill="#5870E9" opacity="1.000000" stroke="none" 
	d="
M52.345787,151.345627 
	C64.949402,150.371826 64.949402,150.371826 62.106079,136.471252 
	C62.919502,136.413391 63.466122,136.708755 64.012741,137.004135 
	C64.349541,141.039429 64.686348,145.074722 64.913612,149.830460 
	C64.198822,151.041046 63.593575,151.531189 62.988331,152.021332 
	C59.562027,151.855820 56.135719,151.690308 52.345787,151.345627 
z"/>
<path fill="#5870E9" opacity="1.000000" stroke="none" 
	d="
M16.633261,129.066849 
	C16.691265,132.082825 16.749268,135.098785 16.394747,138.559280 
	C15.325387,139.002136 14.668553,139.000458 14.011720,138.998779 
	C14.011720,138.998779 14.000998,138.999222 13.977573,138.673065 
	C13.641958,137.566360 13.329767,136.785828 13.017574,136.005280 
	C13.017097,134.616562 13.016623,133.227859 13.307527,131.358582 
	C14.610358,130.274307 15.621809,129.670578 16.633261,129.066849 
z"/>
<path fill="#5870E9" opacity="1.000000" stroke="none" 
	d="
M24.184477,150.329819 
	C29.014936,149.973862 34.022560,149.955200 39.437691,149.852173 
	C39.135902,153.668365 38.267483,156.044235 33.587837,152.679672 
	C31.242483,150.993408 27.482077,151.275314 24.184477,150.329819 
z"/>
<path fill="#506BF9" opacity="1.000000" stroke="none" 
	d="
M95.210724,150.171021 
	C94.991547,148.603134 94.994110,147.217316 94.998184,145.415451 
	C96.418755,144.910156 97.837822,144.820892 100.865654,144.630432 
	C99.242294,147.231323 98.261612,148.802551 97.147675,150.684509 
	C96.487114,150.781189 95.959793,150.567123 95.210724,150.171021 
z"/>
<path fill="#5670F0" opacity="1.000000" stroke="none" 
	d="
M16.715395,128.735687 
	C15.621809,129.670578 14.610358,130.274307 13.309027,130.941986 
	C13.013290,129.937561 13.007433,128.869186 13.000949,127.400253 
	C13.001228,126.556679 13.002133,126.113655 13.003343,125.338501 
	C14.543938,125.163101 16.084229,125.319832 17.810753,125.717773 
	C17.745132,126.172234 17.513830,126.405823 17.156342,126.858063 
	C16.938915,127.505745 16.868221,127.955124 16.715395,128.735687 
z"/>
<path fill="#5670F0" opacity="1.000000" stroke="none" 
	d="
M16.053143,49.015110 
	C16.028172,51.383183 16.003202,53.751259 15.608603,56.559334 
	C14.830507,56.999809 14.422040,57.000286 14.013573,57.000763 
	C13.880241,54.550629 13.746911,52.100494 14.151442,49.326653 
	C15.143917,49.007000 15.598530,49.011055 16.053143,49.015110 
z"/>
<path fill="#5770F0" opacity="1.000000" stroke="none" 
	d="
M174.256897,73.940826 
	C173.840622,72.206688 173.802017,70.446449 173.823822,68.357849 
	C175.167862,68.975380 176.451508,69.921265 177.735168,70.867142 
	C176.701630,71.883003 175.668091,72.898857 174.256897,73.940826 
z"/>
<path fill="#5670F0" opacity="1.000000" stroke="none" 
	d="
M29.958405,75.666290 
	C27.620773,76.008026 25.256094,76.000000 22.448679,75.977859 
	C25.632332,71.651627 27.777380,71.476448 29.958405,75.666290 
z"/>
<path fill="#6679D0" opacity="1.000000" stroke="none" 
	d="
M32.988071,104.006012 
	C33.289536,104.502914 33.590996,104.999809 33.932907,105.787659 
	C29.579420,105.119286 25.185480,104.159958 20.415855,102.857719 
	C20.040174,102.514809 20.055782,102.049332 20.055782,102.049332 
	C21.758610,102.045448 23.461437,102.041565 25.912458,102.188744 
	C28.769793,102.895218 30.878933,103.450615 32.988071,104.006012 
z"/>
<path fill="#5870E9" opacity="1.000000" stroke="none" 
	d="
M40.100761,149.747894 
	C39.170807,146.843018 38.587223,143.824585 37.972881,140.423401 
	C41.525024,142.521027 43.460629,145.431564 40.100761,149.747894 
z"/>
<path fill="#6577DC" opacity="1.000000" stroke="none" 
	d="
M179.970520,96.583405 
	C179.535126,96.986649 179.089691,97.012337 178.308899,97.038834 
	C179.625229,91.125992 174.374146,91.948952 171.226044,90.235031 
	C172.524033,89.597778 174.118851,89.155365 175.887146,88.404480 
	C177.360580,90.799286 178.660538,93.502563 179.970520,96.583405 
z"/>
<path fill="#536CF4" opacity="1.000000" stroke="none" 
	d="
M48.999535,74.410522 
	C50.137775,74.209999 51.276913,74.410316 52.707893,74.800949 
	C52.168419,76.697784 51.337097,78.404289 50.505772,80.110794 
	C50.113037,80.046059 49.720303,79.981316 49.327568,79.916573 
	C49.218521,78.214836 49.109470,76.513100 48.999535,74.410522 
z"/>
<path fill="#6877D4" opacity="1.000000" stroke="none" 
	d="
M172.627655,114.166786 
	C169.890045,113.203575 167.094666,111.913223 164.217880,110.280685 
	C166.166367,110.197624 168.196259,110.456734 170.569824,110.868553 
	C171.465622,111.960724 172.017746,112.900177 172.627655,114.166786 
z"/>
<path fill="#5670F0" opacity="1.000000" stroke="none" 
	d="
M16.468773,40.184238 
	C16.790226,41.481808 16.809708,42.920147 16.458969,44.744175 
	C15.394784,45.419491 14.700818,45.709110 14.006853,45.998730 
	C12.144466,43.124397 13.346500,41.416672 16.468773,40.184238 
z"/>
<path fill="#5770F0" opacity="1.000000" stroke="none" 
	d="
M151.142654,171.402069 
	C152.065826,170.812134 153.125900,170.490829 154.673782,170.431702 
	C155.459930,171.442062 155.758270,172.190231 156.056610,172.938416 
	C154.080109,173.963379 152.102631,174.992050 151.142654,171.402069 
z"/>
<path fill="#5670F0" opacity="1.000000" stroke="none" 
	d="
M32.881706,103.655991 
	C30.878933,103.450615 28.769793,102.895218 26.338173,102.182098 
	C26.013000,101.854309 26.010311,101.684235 26.005299,101.259064 
	C28.260429,101.771301 30.517883,102.538635 32.881706,103.655991 
z"/>
<path fill="#556EEF" opacity="1.000000" stroke="none" 
	d="
M64.302811,136.867126 
	C63.466122,136.708755 62.919502,136.413391 62.065506,136.053421 
	C61.758133,135.988831 61.641579,135.811218 61.769520,135.283051 
	C61.942421,133.831680 61.987381,132.908463 62.032341,131.985245 
	C64.211029,132.851746 67.402252,133.171844 64.302811,136.867126 
z"/>
<path fill="#516BF3" opacity="1.000000" stroke="none" 
	d="
M174.993225,114.051262 
	C177.721497,110.461121 178.836182,112.825790 179.528671,115.722389 
	C178.072861,116.067093 176.987717,116.070076 175.902573,116.073059 
	C175.902573,116.073059 175.971848,116.059845 175.914337,115.802780 
	C175.568954,115.047569 175.281082,114.549416 174.993225,114.051262 
z"/>
<path fill="#5870E9" opacity="1.000000" stroke="none" 
	d="
M62.003777,131.640533 
	C61.987381,132.908463 61.942421,133.831680 61.853905,135.218536 
	C60.829346,133.433594 59.848339,131.185013 58.789631,128.582764 
	C59.216862,128.171112 59.721786,128.113098 60.606571,128.028671 
	C61.316025,129.100128 61.645618,130.197983 62.003777,131.640533 
z"/>
<path fill="#6878D3" opacity="1.000000" stroke="none" 
	d="
M133.850464,162.701416 
	C133.010345,162.963531 131.940125,162.969330 130.471283,162.968689 
	C130.072662,162.962234 130.035583,162.959366 129.877014,162.775452 
	C129.508774,162.362335 129.271683,162.166275 129.007172,162.003372 
	C128.043472,161.233917 127.079758,160.464462 125.989761,159.404541 
	C128.449097,160.224411 131.034729,161.334747 133.850464,162.701416 
z"/>
<path fill="#5870E9" opacity="1.000000" stroke="none" 
	d="
M16.765430,141.021545 
	C18.063248,143.144867 19.361065,145.268173 20.459679,147.687729 
	C19.509689,147.988968 18.758898,147.993958 18.008110,147.998947 
	C17.351219,146.563156 16.694328,145.127365 16.056377,143.085785 
	C16.305355,141.993851 16.535393,141.507706 16.765430,141.021545 
z"/>
<path fill="#536CF4" opacity="1.000000" stroke="none" 
	d="
M46.989525,81.645966 
	C45.873173,81.396057 44.748638,80.784790 43.313190,80.096512 
	C43.702198,79.247932 44.402119,78.476372 45.102039,77.704811 
	C45.728470,78.898079 46.354904,80.091339 46.989525,81.645966 
z"/>
<path fill="#5670F0" opacity="1.000000" stroke="none" 
	d="
M39.997459,65.004166 
	C39.220783,65.642906 38.444111,66.281654 37.343922,66.954773 
	C36.801067,66.471085 36.581730,65.953033 36.181427,64.884277 
	C36.001232,63.890293 36.002003,63.447014 36.340073,63.027275 
	C37.784069,63.701927 38.890766,64.353043 39.997459,65.004166 
z"/>
<path fill="#5670F0" opacity="1.000000" stroke="none" 
	d="
M17.848236,148.227020 
	C18.758898,147.993958 19.509689,147.988968 20.635296,147.971802 
	C21.010111,147.959625 21.009508,147.987320 21.010389,148.246735 
	C21.014833,148.682129 21.018396,148.858124 21.021957,149.034119 
	C20.255032,149.698257 19.488106,150.362396 18.721182,151.026550 
	C18.376911,150.169388 18.032639,149.312241 17.848236,148.227020 
z"/>
<path fill="#5870E9" opacity="1.000000" stroke="none" 
	d="
M49.072388,145.151382 
	C49.742138,146.545135 50.391319,148.358047 51.102646,150.562683 
	C50.460472,149.159805 49.756145,147.365158 49.072388,145.151382 
z"/>
<path fill="#6878D3" opacity="1.000000" stroke="none" 
	d="
M168.200317,165.222626 
	C166.101196,166.194824 164.002075,167.167023 161.483582,168.108185 
	C161.064194,168.077148 160.973068,167.958786 161.227081,167.733002 
	C163.608231,166.613358 165.735336,165.719513 167.946930,164.924896 
	C168.031418,165.024139 168.200317,165.222641 168.200317,165.222626 
z"/>
<path fill="#5770F0" opacity="1.000000" stroke="none" 
	d="
M14.005232,46.373798 
	C14.700818,45.709110 15.394784,45.419491 16.363113,45.064133 
	C16.628080,46.185532 16.618679,47.372665 16.331211,48.787453 
	C15.598530,49.011055 15.143917,49.007000 14.348515,49.000954 
	C14.006353,48.248932 14.004982,47.498898 14.005232,46.373798 
z"/>
<path fill="#556EEF" opacity="1.000000" stroke="none" 
	d="
M63.114933,152.299301 
	C63.593575,151.531189 64.198822,151.041046 64.915298,150.268982 
	C65.363777,150.973785 65.701027,151.960495 66.038269,152.947220 
	C65.106026,152.823898 64.173782,152.700592 63.114933,152.299301 
z"/>
<path fill="#536CF4" opacity="1.000000" stroke="none" 
	d="
M56.839951,86.715027 
	C55.664059,85.935242 54.353893,84.834236 52.998962,83.391151 
	C54.204689,84.163986 55.455181,85.278885 56.839951,86.715027 
z"/>
<path fill="#5670F0" opacity="1.000000" stroke="none" 
	d="
M16.798862,140.683899 
	C16.535393,141.507706 16.305355,141.993851 16.014805,142.743896 
	C15.311801,141.907013 14.669311,140.806274 14.019270,139.352142 
	C14.668553,139.000458 15.325387,139.002136 16.310820,139.005829 
	C16.703711,139.453979 16.768002,139.900116 16.798862,140.683899 
z"/>
<path fill="#5670F0" opacity="1.000000" stroke="none" 
	d="
M43.808502,135.159973 
	C44.638824,135.798172 45.248051,136.594131 45.924637,137.692383 
	C45.190468,137.102341 44.388935,136.210037 43.808502,135.159973 
z"/>
<path fill="#6877D4" opacity="1.000000" stroke="none" 
	d="
M185.138367,120.797508 
	C183.725906,120.361626 182.428619,119.665771 180.919556,118.744827 
	C182.223038,119.192322 183.738312,119.864929 185.138367,120.797508 
z"/>
<path fill="#5770F0" opacity="1.000000" stroke="none" 
	d="
M173.176102,42.601765 
	C172.893478,42.895145 172.702530,42.925968 172.226242,43.009399 
	C171.586182,41.960690 171.231476,40.859379 170.864243,39.406670 
	C171.657074,40.149918 172.462433,41.244564 173.176102,42.601765 
z"/>
<path fill="#596ECD" opacity="1.000000" stroke="none" 
	d="
M16.899668,199.797974 
	C15.688142,199.624802 14.464334,199.133560 13.086533,198.341476 
	C14.250821,198.520386 15.569102,199.000137 16.899668,199.797974 
z"/>
<path fill="#536CF4" opacity="1.000000" stroke="none" 
	d="
M54.207497,76.263748 
	C55.240566,76.459206 56.472637,76.922066 57.850151,77.692924 
	C56.799229,77.511002 55.602867,77.021088 54.207497,76.263748 
z"/>
<path fill="#6877D4" opacity="1.000000" stroke="none" 
	d="
M176.097748,116.348793 
	C176.987717,116.070076 178.072861,116.067093 179.563797,116.075127 
	C180.167557,116.686409 180.365509,117.286682 180.557648,118.208832 
	C179.132187,117.895309 177.712540,117.259918 176.097748,116.348793 
z"/>
<path fill="#5770F0" opacity="1.000000" stroke="none" 
	d="
M170.896729,38.763542 
	C169.958191,37.995956 169.019119,36.865936 167.970551,35.438244 
	C168.872757,36.227417 169.884491,37.314262 170.896729,38.763542 
z"/>
<path fill="#6878D3" opacity="1.000000" stroke="none" 
	d="
M181.068146,159.089020 
	C180.026749,159.821320 178.909943,160.459015 177.383896,161.036774 
	C176.974640,160.976852 176.810364,160.769562 177.018646,160.518921 
	C178.431671,159.780792 179.636444,159.293304 180.841202,158.805801 
	C180.841202,158.805801 180.992737,158.994431 181.068146,159.089020 
z"/>
<path fill="#5770F0" opacity="1.000000" stroke="none" 
	d="
M70.102615,158.014801 
	C69.705734,158.202713 69.315819,158.206848 68.925896,158.210999 
	C68.931709,158.060547 68.937531,157.910110 68.943352,157.759674 
	C69.332092,157.783463 69.720825,157.807251 70.102615,158.014801 
z"/>
<path fill="#536CF4" opacity="1.000000" stroke="none" 
	d="
M36.002773,63.003735 
	C36.002003,63.447014 36.001232,63.890293 36.000526,64.666168 
	C35.251999,64.999252 34.503414,64.999733 33.381622,65.000763 
	C33.012005,64.553642 33.015598,64.105972 33.406494,63.326607 
	C34.530121,62.997849 35.266449,63.000793 36.002773,63.003735 
z"/>
<path fill="#5670F0" opacity="1.000000" stroke="none" 
	d="
M12.853729,136.238480 
	C13.329767,136.785828 13.641958,137.566360 13.977636,138.667709 
	C13.564042,138.149567 13.126962,137.310623 12.853729,136.238480 
z"/>
<path fill="#6878D3" opacity="1.000000" stroke="none" 
	d="
M156.297043,172.761444 
	C155.758270,172.190231 155.459930,171.442062 155.009827,170.429688 
	C154.858063,170.165512 154.916107,170.101013 155.270874,170.032440 
	C156.256241,169.789108 156.886841,169.614319 157.652557,169.594086 
	C157.787674,169.748627 158.059662,170.056198 158.059662,170.056198 
	C157.552277,170.898956 157.044876,171.741714 156.297043,172.761444 
z"/>
<path fill="#6878D3" opacity="1.000000" stroke="none" 
	d="
M146.385040,170.003113 
	C145.713272,169.486877 145.424530,168.975906 145.001678,168.200592 
	C146.126602,168.436050 147.385620,168.935852 148.854767,169.700394 
	C148.299271,169.979553 147.533676,169.993973 146.385040,170.003113 
z"/>
<path fill="#6877D4" opacity="1.000000" stroke="none" 
	d="
M174.602966,114.086800 
	C175.281082,114.549416 175.568954,115.047569 175.899109,115.834587 
	C174.995148,115.717613 174.048935,115.311775 172.889877,114.678764 
	C173.188934,114.341843 173.700821,114.232094 174.602966,114.086800 
z"/>
<path fill="#5770F0" opacity="1.000000" stroke="none" 
	d="
M31.931503,30.665783 
	C31.487717,30.717325 30.961948,30.549282 30.211477,30.215580 
	C30.607691,30.182016 31.228607,30.314108 31.931503,30.665783 
z"/>
<path fill="#556EEF" opacity="1.000000" stroke="none" 
	d="
M75.150070,151.070892 
	C75.527649,150.888901 75.953651,150.943771 76.691917,151.077805 
	C76.402290,151.207230 75.800385,151.257492 75.150070,151.070892 
z"/>
<path fill="#5870E9" opacity="1.000000" stroke="none" 
	d="
M54.035507,156.716248 
	C54.107094,156.904816 54.062073,157.088806 54.017056,157.272781 
	C53.984337,157.085739 53.951618,156.898682 54.035507,156.716248 
z"/>
<path fill="#5770F0" opacity="1.000000" stroke="none" 
	d="
M14.162695,57.332100 
	C14.422040,57.000286 14.830507,56.999809 15.545467,56.998779 
	C15.895075,57.545300 15.938188,58.092377 15.911702,58.907066 
	C15.332008,58.670933 14.821913,58.167187 14.162695,57.332100 
z"/>
<path fill="#5770F0" opacity="1.000000" stroke="none" 
	d="
M172.286484,34.035557 
	C172.096024,34.107922 171.910156,34.062508 171.724289,34.017090 
	C171.913223,33.983986 172.102142,33.950878 172.286484,34.035557 
z"/>
<path fill="#5770F0" opacity="1.000000" stroke="none" 
	d="
M180.770981,87.171913 
	C180.857300,86.988014 181.021378,86.890175 181.185455,86.792336 
	C181.073212,86.947548 180.960983,87.102760 180.770981,87.171913 
z"/>
<path fill="#5770F0" opacity="1.000000" stroke="none" 
	d="
M121.087860,156.366760 
	C121.200928,156.082184 121.405212,156.055649 121.916153,155.989655 
	C122.514725,156.071899 122.716362,156.280731 122.848068,157.052277 
	C122.836067,157.700409 122.803749,157.872986 122.771431,158.045547 
	C122.240639,157.571960 121.709854,157.098389 121.087860,156.366760 
z"/>
<path fill="#5870E9" opacity="1.000000" stroke="none" 
	d="
M19.718788,102.060471 
	C20.055782,102.049332 20.040174,102.514809 20.041153,102.747681 
	C19.286186,103.041862 18.530241,103.103172 17.393145,103.172119 
	C17.801928,102.810379 18.591862,102.440994 19.718788,102.060471 
z"/>
<path fill="#6878D3" opacity="1.000000" stroke="none" 
	d="
M123.091087,158.228241 
	C122.803749,157.872986 122.836067,157.700409 122.908272,157.267105 
	C123.692993,157.458450 124.437828,157.910538 125.358093,158.645782 
	C124.825935,158.756271 124.118340,158.583618 123.091087,158.228241 
z"/>
<path fill="#5770F0" opacity="1.000000" stroke="none" 
	d="
M19.866173,35.174133 
	C19.670923,35.713055 19.166445,36.359798 18.392853,37.162888 
	C18.601475,36.640137 19.079210,35.961044 19.866173,35.174133 
z"/>
<path fill="#6878D3" opacity="1.000000" stroke="none" 
	d="
M177.056320,161.080841 
	C176.350372,161.492218 175.562759,161.799576 174.420197,162.094330 
	C174.065231,162.081726 173.987885,161.980316 174.213760,161.759109 
	C175.229874,161.281784 176.020126,161.025681 176.810364,160.769562 
	C176.810364,160.769562 176.974640,160.976852 177.056320,161.080841 
z"/>
<path fill="#6878D3" opacity="1.000000" stroke="none" 
	d="
M174.103241,162.132904 
	C173.658707,162.472397 173.176163,162.760681 172.361816,163.043945 
	C172.029999,163.038925 171.913116,162.885101 172.111664,162.667175 
	C172.869431,162.292923 173.428650,162.136627 173.987885,161.980316 
	C173.987885,161.980316 174.065231,162.081726 174.103241,162.132904 
z"/>
<path fill="#6878D3" opacity="1.000000" stroke="none" 
	d="
M172.087982,163.116196 
	C171.661469,163.477051 171.176971,163.760651 170.359955,164.039917 
	C170.027466,164.035614 169.902817,163.870117 170.098145,163.656860 
	C170.833359,163.257431 171.373245,163.071259 171.913116,162.885101 
	C171.913116,162.885101 172.029999,163.038925 172.087982,163.116196 
z"/>
<path fill="#6877D4" opacity="1.000000" stroke="none" 
	d="
M177.294464,125.079636 
	C177.041443,124.891457 177.040070,124.676048 177.051224,124.137627 
	C177.504532,123.936554 177.945328,124.058487 178.676056,124.368576 
	C178.492706,124.721954 178.019409,124.887177 177.294464,125.079636 
z"/>
<path fill="#6878D3" opacity="1.000000" stroke="none" 
	d="
M170.089417,164.118652 
	C169.672394,164.476044 169.193436,164.750397 168.457397,165.123703 
	C168.200317,165.222641 168.031418,165.024139 168.132874,164.696487 
	C168.790497,164.202591 169.346664,164.036346 169.902817,163.870117 
	C169.902817,163.870117 170.027466,164.035614 170.089417,164.118652 
z"/>
<path fill="#6878D3" opacity="1.000000" stroke="none" 
	d="
M161.109375,168.136627 
	C160.674057,168.487213 160.193542,168.778336 159.377075,169.060089 
	C159.041122,169.050735 158.921585,168.910370 159.120087,168.692627 
	C159.870087,168.302841 160.421585,168.130814 160.973068,167.958786 
	C160.973068,167.958786 161.064194,168.077148 161.109375,168.136627 
z"/>
<path fill="#536CF4" opacity="1.000000" stroke="none" 
	d="
M52.861572,82.956436 
	C52.974438,83.040787 52.477764,83.053139 52.228874,83.051834 
	C52.205540,82.830467 52.461781,82.770988 52.861572,82.956436 
z"/>
<path fill="#6878D3" opacity="1.000000" stroke="none" 
	d="
M159.100174,169.121521 
	C158.943832,169.419403 158.708496,169.623520 158.256454,169.930420 
	C158.059662,170.056198 157.787674,169.748627 157.856781,169.438263 
	C158.257797,169.055405 158.589691,168.982880 158.921585,168.910370 
	C158.921585,168.910370 159.041122,169.050735 159.100174,169.121521 
z"/>
<path fill="#6877D4" opacity="1.000000" stroke="none" 
	d="
M184.112213,122.850769 
	C184.097687,122.702019 184.307480,122.428009 184.764175,122.056808 
	C184.786224,122.214912 184.561371,122.470207 184.112213,122.850769 
z"/>
<path fill="#6877D4" opacity="1.000000" stroke="none" 
	d="
M182.665558,123.800026 
	C182.683685,123.614998 183.001450,123.300797 183.664658,122.941101 
	C183.661789,123.154022 183.313477,123.412437 182.665558,123.800026 
z"/>
<path fill="#6877D4" opacity="1.000000" stroke="none" 
	d="
M181.136505,124.412025 
	C181.137802,124.237801 181.319962,124.097771 181.842194,123.886353 
	C181.893967,124.025375 181.605682,124.235802 181.136505,124.412025 
z"/>
<path fill="#5E70DD" opacity="1.000000" stroke="none" 
	d="
M174.000656,128.761749 
	C173.950958,128.594833 174.123459,128.225250 174.563049,127.694122 
	C174.627716,127.874748 174.425278,128.216904 174.000656,128.761749 
z"/>
<path fill="#5770F0" opacity="1.000000" stroke="none" 
	d="
M129.155701,162.179626 
	C129.271683,162.166275 129.508774,162.362335 129.859283,162.774506 
	C129.746750,162.781677 129.514801,162.581161 129.155701,162.179626 
z"/>
<path fill="#5870E9" opacity="1.000000" stroke="none" 
	d="
M49.055717,143.254852 
	C49.228313,143.283676 49.402584,143.646103 49.338551,144.131409 
	C49.085964,144.032349 49.071682,143.810394 49.055717,143.254852 
z"/>
<path fill="#5870E9" opacity="1.000000" stroke="none" 
	d="
M21.340382,149.003555 
	C21.018396,148.858124 21.014833,148.682129 21.021973,148.242432 
	C21.363310,148.121017 21.693945,148.263290 22.158859,148.647644 
	C22.081692,148.917496 21.870247,148.945236 21.340382,149.003555 
z"/>
<path fill="#5870E9" opacity="1.000000" stroke="none" 
	d="
M23.133572,149.369141 
	C23.330456,149.164291 23.603868,149.284317 23.905771,149.783478 
	C23.741720,149.876602 23.500334,149.720383 23.133572,149.369141 
z"/>
<path fill="#5670F0" opacity="1.000000" stroke="none" 
	d="
M21.020552,125.961151 
	C20.567892,125.963226 20.115234,125.965302 19.322845,125.961334 
	C19.602594,123.551430 20.222073,121.147568 20.917011,118.382202 
	C22.424545,117.954124 23.856621,117.887550 25.712437,117.744110 
	C26.136181,117.667252 26.143288,117.704292 26.220295,118.016251 
	C26.530462,118.885834 26.763622,119.443443 26.765007,120.239792 
	C24.695673,122.306068 22.858112,124.133614 21.020552,125.961151 
z"/>
<path fill="#516BF7" opacity="1.000000" stroke="none" 
	d="
M9.000013,119.375000 
	C9.179479,119.927780 9.358919,120.855553 9.269180,121.891663 
	C8.999996,121.250000 8.999991,120.500000 9.000013,119.375000 
z"/>
<path fill="#6577DC" opacity="1.000000" stroke="none" 
	d="
M164.611115,88.497482 
	C166.426041,88.608734 168.528625,88.988541 170.805878,89.715393 
	C168.953293,89.630302 166.926025,89.198166 164.611115,88.497482 
z"/>
<path fill="#6878D3" opacity="1.000000" stroke="none" 
	d="
M144.350220,167.550690 
	C142.562042,167.022110 140.520386,166.224167 138.235184,165.158035 
	C140.026672,165.687012 142.061707,166.484177 144.350220,167.550690 
z"/>
<path fill="#6878D3" opacity="1.000000" stroke="none" 
	d="
M135.899628,163.717392 
	C135.534088,163.752258 134.979477,163.545013 134.207520,163.129700 
	C134.563629,163.106186 135.137085,163.290741 135.899628,163.717392 
z"/>
<path fill="#6878D3" opacity="1.000000" stroke="none" 
	d="
M137.930908,164.685608 
	C137.548874,164.739059 136.985870,164.538025 136.207001,164.122559 
	C136.577408,164.082443 137.163666,164.256775 137.930908,164.685608 
z"/>
<path fill="#6577DC" opacity="1.000000" stroke="none" 
	d="
M176.785019,98.115486 
	C176.801361,98.279922 176.566132,98.515648 176.101486,98.855850 
	C176.092545,98.702477 176.313004,98.444633 176.785019,98.115486 
z"/>
<path fill="#FAFCFE" opacity="1.000000" stroke="none" 
	d="
M64.487015,79.884338 
	C60.883205,77.480186 57.503803,75.044365 54.039860,72.735367 
	C52.949795,72.008759 51.644466,71.594589 50.417877,71.085052 
	C44.196171,68.500481 43.980427,68.008255 46.559635,60.578148 
	C78.659447,60.166176 110.271904,60.119843 141.884369,60.073505 
	C142.144440,64.651711 142.404495,69.229912 142.714905,74.694641 
	C136.537521,73.294060 131.291534,72.082466 126.035126,70.917809 
	C116.983795,68.912300 113.251572,71.842873 113.183533,81.198853 
	C113.098892,92.837189 113.156860,104.476562 113.153419,116.115494 
	C113.152893,117.903252 113.153351,119.691002 113.153351,122.132286 
	C108.530869,122.132286 104.404655,122.397873 100.349548,121.977516 
	C99.059921,121.843819 97.627769,120.081215 96.828354,118.728577 
	C92.785896,111.888672 88.930519,104.938194 84.754936,97.820221 
	C84.500336,97.613960 84.476089,97.579185 84.329834,97.277771 
	C81.592346,94.198174 79.001129,91.419983 76.409912,88.641792 
	C76.409912,88.641792 76.370155,88.631104 76.215332,88.319595 
	C73.031387,85.836067 70.002258,83.664047 66.973137,81.492020 
	C66.973137,81.492020 66.673248,81.093201 66.318207,80.771240 
	C65.645142,80.332664 65.327126,80.216057 65.009102,80.099449 
	C65.009102,80.099449 64.678741,79.901688 64.487015,79.884338 
z"/>
<path fill="#506BF7" opacity="1.000000" stroke="none" 
	d="
M36.340073,63.027275 
	C35.266449,63.000793 34.530121,62.997849 33.427292,62.991302 
	C33.331337,61.017525 33.620667,59.049709 33.868980,57.076733 
	C34.668007,50.728096 38.204681,48.206612 44.683334,49.100170 
	C48.237431,49.590363 51.841782,49.944115 55.424992,49.957722 
	C76.209267,50.036648 96.994156,50.038723 117.778412,49.958664 
	C121.746330,49.943382 125.777489,49.798752 129.663757,49.084328 
	C135.241394,48.058975 139.200531,50.383221 143.146164,54.132378 
	C142.917175,52.820255 142.688171,51.508137 142.265610,49.086811 
	C145.245621,49.401424 147.724411,49.663116 150.601379,50.425545 
	C150.780624,55.521797 150.416397,60.117706 150.428680,64.712608 
	C150.432510,66.145180 151.454224,67.575035 152.009964,69.006134 
	C153.412018,73.672188 153.239212,77.824951 148.320541,80.463867 
	C147.746826,80.771660 147.171265,81.578049 146.705826,81.500191 
	C144.487442,81.129051 142.266861,80.646416 140.151047,79.906235 
	C139.787094,79.778923 139.751892,77.451546 139.858444,77.427223 
	C141.671921,77.013435 143.531143,76.798309 145.381790,76.550606 
	C145.855591,76.487190 146.334564,76.462486 146.486908,76.448906 
	C146.486908,74.192062 146.486908,72.034660 146.486908,69.265625 
	C145.400940,66.391418 144.046844,62.807533 141.910217,59.091759 
	C110.419655,58.895817 79.711594,58.831768 48.912216,58.570034 
	C48.213428,58.505943 47.605957,58.639545 46.718056,58.823181 
	C46.250717,58.906860 46.063812,58.940506 45.876907,58.974148 
	C44.918846,60.715317 43.960785,62.456486 43.000294,64.599129 
	C42.247829,65.001152 41.497791,65.001694 40.372612,65.003204 
	C38.890766,64.353043 37.784069,63.701927 36.340073,63.027275 
z"/>
<path fill="#526AF8" opacity="1.000000" stroke="none" 
	d="
M95.030685,144.629333 
	C94.075905,143.761856 92.191322,142.331345 92.394691,141.321198 
	C93.326683,136.692047 93.461754,132.621719 89.203918,129.373322 
	C88.374153,128.740280 88.393425,126.994385 88.011459,125.381516 
	C89.460312,122.773293 90.918785,120.545334 92.690842,118.156387 
	C96.493393,121.970078 98.981293,126.128784 94.455589,131.622833 
	C99.051292,131.173553 102.665497,130.820236 106.279701,130.466904 
	C106.347137,130.878067 106.414574,131.289230 106.482010,131.700394 
	C104.783333,132.705933 103.084648,133.711472 101.343384,135.214355 
	C101.300797,135.711685 101.144958,135.976913 101.144958,135.976898 
	C99.117462,138.737900 97.089973,141.498886 95.030685,144.629333 
z"/>
<path fill="#F2F8FE" opacity="1.000000" stroke="none" 
	d="
M101.313583,136.348114 
	C101.144958,135.976913 101.300797,135.711685 101.259689,135.563522 
	C104.982910,135.415359 108.747246,135.415359 112.838089,135.415359 
	C112.838089,140.262817 112.838089,144.804230 112.838089,149.707321 
	C109.473763,149.901306 106.261353,150.086533 102.936569,150.278229 
	C102.451935,145.760025 101.967072,141.239670 101.313583,136.348114 
z"/>
<path fill="#506AFA" opacity="1.000000" stroke="none" 
	d="
M119.606415,97.065887 
	C119.995209,110.351814 120.002243,123.710228 119.999908,137.538086 
	C115.859001,135.931747 113.516647,129.923767 114.268028,125.073448 
	C115.423813,117.612579 116.009247,110.064690 117.068375,102.586540 
	C117.334656,100.706406 118.482132,98.951073 119.606415,97.065887 
z"/>
<path fill="#5B70BF" opacity="1.000000" stroke="none" 
	d="
M45.941288,59.296276 
	C46.063812,58.940506 46.250717,58.906860 47.051521,58.857807 
	C48.111458,58.817505 48.557499,58.792614 49.003536,58.767723 
	C79.711594,58.831768 110.419655,58.895817 141.605545,58.963902 
	C142.053299,59.152790 142.023209,59.337646 141.938751,59.798004 
	C110.271904,60.119843 78.659447,60.166176 46.589184,60.237888 
	C46.089481,60.048317 46.047573,59.833363 45.941288,59.296276 
z"/>
<path fill="#516BF6" opacity="1.000000" stroke="none" 
	d="
M152.280731,68.889977 
	C151.454224,67.575035 150.432510,66.145180 150.428680,64.712608 
	C150.416397,60.117706 150.780624,55.521797 150.999405,50.460716 
	C153.789917,48.505928 155.009842,50.299606 154.814056,52.489452 
	C154.326614,57.941425 153.338547,63.348637 152.280731,68.889977 
z"/>
<path fill="#506BF6" opacity="1.000000" stroke="none" 
	d="
M60.782623,112.937500 
	C61.623173,115.230850 62.170452,117.441803 62.959038,119.563057 
	C63.591972,121.265625 64.517448,122.859428 65.313110,124.501495 
	C63.460583,124.672989 61.608059,124.844475 59.198776,124.788094 
	C58.428249,124.040016 58.214478,123.519814 58.077713,122.884247 
	C58.251732,122.488274 58.197338,122.235260 57.724541,121.774704 
	C56.156490,121.246368 54.855434,120.953186 53.554379,120.660004 
	C53.554379,120.660004 53.337917,120.610580 53.492554,120.114868 
	C53.761417,119.080444 53.875641,118.541725 54.149673,117.702225 
	C56.257961,115.840973 58.206440,114.280502 60.154922,112.720032 
	C60.154922,112.720039 60.593548,112.816383 60.782623,112.937500 
z"/>
<path fill="#556EEF" opacity="1.000000" stroke="none" 
	d="
M60.168716,112.534912 
	C58.206440,114.280502 56.257961,115.840973 53.893829,117.568573 
	C52.970917,117.459114 52.463657,117.182518 51.983009,116.550049 
	C53.672939,114.462967 55.336266,112.731758 57.291725,111.131775 
	C58.396919,111.513512 59.209976,111.764015 60.023033,112.014519 
	C60.023033,112.014519 60.182510,112.349792 60.168716,112.534912 
z"/>
<path fill="#5870E9" opacity="1.000000" stroke="none" 
	d="
M60.016315,111.675705 
	C59.209976,111.764015 58.396919,111.513512 57.126030,110.862206 
	C56.052280,109.373131 55.436363,108.284851 54.820450,107.196571 
	C54.820450,107.196571 55.028122,106.965591 55.131592,106.849777 
	C56.826572,108.268265 58.418087,109.802582 60.016315,111.675705 
z"/>
<path fill="#5770F0" opacity="1.000000" stroke="none" 
	d="
M76.077339,105.981697 
	C77.118828,107.515434 78.160309,109.049164 79.036819,110.825447 
	C77.969612,109.948769 77.067383,108.829544 76.076614,107.140587 
	C76.017830,106.374466 76.047585,106.178085 76.077339,105.981697 
z"/>
<path fill="#6776D2" opacity="1.000000" stroke="none" 
	d="
M76.041382,105.737762 
	C76.047585,106.178085 76.017830,106.374466 75.937042,106.863937 
	C74.593498,105.635750 73.300995,104.114487 71.889771,102.269867 
	C71.982529,101.934341 72.194016,101.922165 72.953186,102.106445 
	C74.319969,103.202927 75.139076,104.102943 75.958183,105.002953 
	C75.958183,105.002953 76.005424,105.493828 76.041382,105.737762 
z"/>
<path fill="#6776D2" opacity="1.000000" stroke="none" 
	d="
M68.725159,98.840546 
	C69.613968,99.372467 70.645874,100.189972 71.680374,101.401520 
	C70.744728,100.905746 69.806488,100.015938 68.725159,98.840546 
z"/>
<path fill="#6776D2" opacity="1.000000" stroke="none" 
	d="
M59.924801,91.295410 
	C60.719883,91.532959 61.703327,92.039101 62.785118,92.884048 
	C61.960033,92.669899 61.036598,92.116943 59.924801,91.295410 
z"/>
<path fill="#6776D2" opacity="1.000000" stroke="none" 
	d="
M65.048508,95.301552 
	C65.563919,95.488716 66.200043,95.947723 66.927551,96.701439 
	C66.402367,96.521896 65.785797,96.047646 65.048508,95.301552 
z"/>
<path fill="#6776D2" opacity="1.000000" stroke="none" 
	d="
M67.113876,97.256172 
	C67.490685,97.285515 67.978256,97.590416 68.574417,98.174774 
	C68.196884,98.146729 67.710770,97.839226 67.113876,97.256172 
z"/>
<path fill="#6776D2" opacity="1.000000" stroke="none" 
	d="
M63.986217,94.296951 
	C64.192940,94.229385 64.461128,94.433998 64.861908,94.856873 
	C64.678886,94.906471 64.363289,94.737801 63.986217,94.296951 
z"/>
<path fill="#6776D2" opacity="1.000000" stroke="none" 
	d="
M62.892120,93.335663 
	C63.092209,93.258163 63.384605,93.450607 63.829735,93.858185 
	C63.649788,93.917419 63.317104,93.761513 62.892120,93.335663 
z"/>
<path fill="#6779DE" opacity="1.000000" stroke="none" 
	d="
M18.189713,92.588921 
	C18.090559,92.873932 17.875654,92.901016 17.337183,92.953743 
	C17.026768,92.775627 17.039921,92.571877 17.092518,92.064491 
	C17.445963,91.950905 17.759962,92.140945 18.189713,92.588921 
z"/>
<path fill="#5870E9" opacity="1.000000" stroke="none" 
	d="
M37.990997,106.025909 
	C39.059223,106.014771 40.127445,106.003624 41.798927,106.260597 
	C44.637817,109.326118 46.873444,112.123528 49.009636,115.010010 
	C48.910206,115.099098 48.712940,115.279037 48.712940,115.279037 
	C45.979763,113.324799 43.246590,111.370567 40.066479,109.024200 
	C39.306976,108.480042 38.994404,108.328018 38.681831,108.175995 
	C38.681831,108.175995 38.839474,108.243027 38.750763,108.009682 
	C38.438366,107.192863 38.214684,106.609383 37.990997,106.025909 
z"/>
<path fill="#5870E9" opacity="1.000000" stroke="none" 
	d="
M53.703011,120.940147 
	C54.855434,120.953186 56.156490,121.246368 57.726498,122.022095 
	C57.995453,122.504646 58.000706,122.999603 58.000710,122.999603 
	C58.214478,123.519814 58.428249,124.040016 58.821720,124.779198 
	C58.957294,125.814346 58.913174,126.630524 58.817066,127.853882 
	C57.127266,125.914139 55.489452,123.567223 53.703011,120.940147 
z"/>
<path fill="#5870E9" opacity="1.000000" stroke="none" 
	d="
M26.996780,120.001060 
	C26.763622,119.443443 26.530462,118.885834 26.219234,118.034691 
	C28.724791,118.801208 31.308413,119.861244 34.101730,121.174850 
	C33.413200,121.388580 32.514973,121.348747 30.951233,121.153030 
	C29.189407,120.665108 28.093096,120.333084 26.996780,120.001060 
z"/>
<path fill="#6679D0" opacity="1.000000" stroke="none" 
	d="
M37.585159,106.010994 
	C38.214684,106.609383 38.438366,107.192863 38.715286,108.087631 
	C37.298454,107.791718 35.828388,107.184509 34.145828,106.310699 
	C35.015327,106.028091 36.097321,106.012085 37.585159,106.010994 
z"/>
<path fill="#5870E9" opacity="1.000000" stroke="none" 
	d="
M51.956398,116.905922 
	C52.463657,117.182518 52.970917,117.459114 53.734020,117.869362 
	C53.875641,118.541725 53.761417,119.080444 53.492699,120.003860 
	C52.558353,119.527466 51.778503,118.666382 50.965187,117.430023 
	C50.931721,117.054764 51.096077,116.848145 51.310577,116.868477 
	C51.525082,116.888809 51.956398,116.905922 51.956398,116.905922 
z"/>
<path fill="#5870E9" opacity="1.000000" stroke="none" 
	d="
M50.847824,117.156685 
	C50.429195,117.172798 50.156712,116.992767 49.922844,116.409714 
	C49.899220,116.100906 50.066536,115.932884 50.251190,116.070633 
	C50.669552,116.407570 50.889629,116.620827 51.096077,116.848145 
	C51.096077,116.848145 50.931721,117.054764 50.847824,117.156685 
z"/>
<path fill="#5870E9" opacity="1.000000" stroke="none" 
	d="
M49.815918,116.185272 
	C49.400440,116.181824 49.133434,115.998886 48.822273,115.499924 
	C48.712940,115.279037 48.910206,115.099098 49.183128,115.164948 
	C49.684444,115.443169 49.887943,115.677200 50.066536,115.932884 
	C50.066536,115.932884 49.899220,116.100906 49.815918,116.185272 
z"/>
<path fill="#6679D0" opacity="1.000000" stroke="none" 
	d="
M38.819298,108.421951 
	C38.994404,108.328018 39.306976,108.480042 39.816719,108.802742 
	C39.661514,108.871582 39.309139,108.769745 38.819298,108.421951 
z"/>
<path fill="#5770F0" opacity="1.000000" stroke="none" 
	d="
M76.329208,89.047852 
	C79.001129,91.419983 81.592346,94.198174 84.310158,97.285767 
	C80.415047,96.181160 75.811501,95.352348 76.329208,89.047852 
z"/>
<path fill="#5770F0" opacity="1.000000" stroke="none" 
	d="
M67.020416,81.822083 
	C70.002258,83.664047 73.031387,85.836067 76.210686,88.299545 
	C70.891502,89.867691 69.445625,85.337311 67.020416,81.822083 
z"/>
<path fill="#5770F0" opacity="1.000000" stroke="none" 
	d="
M76.281517,104.915024 
	C75.139076,104.102943 74.319969,103.202927 73.270866,102.100113 
	C74.709145,101.794746 76.377419,101.692177 78.045700,101.589615 
	C77.565422,102.668770 77.085136,103.747932 76.281517,104.915024 
z"/>
<path fill="#526AF8" opacity="1.000000" stroke="none" 
	d="
M87.260635,116.890213 
	C86.345665,115.896271 85.697975,114.786644 85.026978,113.339767 
	C87.149681,113.386818 89.299522,113.768547 87.260635,116.890213 
z"/>
<path fill="#5770F0" opacity="1.000000" stroke="none" 
	d="
M65.191971,80.259796 
	C65.327126,80.216057 65.645142,80.332664 66.083374,80.686958 
	C65.905937,80.791626 65.629684,80.623459 65.191971,80.259796 
z"/>
<path fill="#F9FCFE" opacity="1.000000" stroke="none" 
	d="
M159.120087,168.692627 
	C158.589691,168.982880 158.257797,169.055405 157.721680,169.283722 
	C156.886841,169.614319 156.256241,169.789108 155.299942,170.000244 
	C154.870667,162.412094 154.543610,154.779984 154.801682,147.167725 
	C154.877686,144.926407 156.609894,142.741211 158.148285,140.412292 
	C160.483215,139.566132 162.252930,138.837952 164.022659,138.109787 
	C164.022659,138.109787 164.005066,138.037506 164.218719,137.919525 
	C164.660233,137.638870 164.861801,137.448395 165.037079,137.230103 
	C171.159561,134.518982 177.282059,131.807846 183.776886,129.047226 
	C184.344406,137.183182 184.726929,145.372162 184.572601,153.551010 
	C184.542679,155.137741 182.419312,156.684998 181.051392,158.528137 
	C179.636444,159.293304 178.431671,159.780792 177.018646,160.518921 
	C176.020126,161.025681 175.229874,161.281784 174.213760,161.759109 
	C173.428650,162.136627 172.869431,162.292923 172.111664,162.667175 
	C171.373245,163.071259 170.833359,163.257431 170.098145,163.656860 
	C169.346664,164.036346 168.790497,164.202591 168.048401,164.597260 
	C165.735336,165.719513 163.608231,166.613358 161.227081,167.733002 
	C160.421585,168.130814 159.870087,168.302841 159.120087,168.692627 
z"/>
<path fill="#EEF6FE" opacity="1.000000" stroke="none" 
	d="
M163.643982,138.114410 
	C162.252930,138.837952 160.483215,139.566132 158.433685,140.170761 
	C153.936523,138.537125 155.123383,134.938080 154.925262,131.416840 
	C155.444351,130.425232 156.288773,129.279114 156.562180,129.402130 
	C159.084335,130.536880 161.507751,131.891006 164.310822,133.365982 
	C162.333740,134.827515 160.847305,135.926346 158.462662,137.689163 
	C160.835220,137.901535 162.050247,138.010284 163.643982,138.114410 
z"/>
<path fill="#6374D6" opacity="1.000000" stroke="none" 
	d="
M157.826935,117.726189 
	C157.265244,118.017288 156.536499,118.086845 155.439087,118.148529 
	C155.933594,117.928650 156.796738,117.716644 157.826935,117.726189 
z"/>
<path fill="#EEF6FE" opacity="1.000000" stroke="none" 
	d="
M164.790070,137.217957 
	C164.861801,137.448395 164.660233,137.638870 164.254913,137.910950 
	C164.051239,137.645142 164.206451,137.373627 164.790070,137.217957 
z"/>
<path fill="#6878D3" opacity="1.000000" stroke="none" 
	d="
M161.771790,108.680710 
	C161.610886,108.759964 161.203201,108.672188 160.611130,108.316422 
	C160.792847,108.203514 161.158920,108.358589 161.771790,108.680710 
z"/>
<path fill="#6374D6" opacity="1.000000" stroke="none" 
	d="
M171.006317,120.697884 
	C170.639343,120.707054 170.064056,120.478867 169.266144,120.030807 
	C169.628342,120.027481 170.213165,120.244003 171.006317,120.697884 
z"/>
<path fill="#6374D6" opacity="1.000000" stroke="none" 
	d="
M167.030731,118.688019 
	C166.661392,118.699730 166.082321,118.473000 165.276855,118.028229 
	C165.640625,118.023315 166.230820,118.236443 167.030731,118.688019 
z"/>
<path fill="#6374D6" opacity="1.000000" stroke="none" 
	d="
M162.936691,116.676201 
	C162.569427,116.692192 162.016708,116.462120 161.252991,116.014359 
	C161.611740,116.007835 162.181503,116.218987 162.936691,116.676201 
z"/>
<path fill="#6374D6" opacity="1.000000" stroke="none" 
	d="
M163.768677,117.045380 
	C163.987274,117.174850 163.583145,117.248024 163.583145,117.248024 
	C163.583145,117.248024 163.216858,117.076653 163.131439,116.963982 
	C163.214050,116.872841 163.382050,116.894371 163.768677,117.045380 
z"/>
<path fill="#526CF7" opacity="1.000000" stroke="none" 
	d="
M50.251190,116.070633 
	C49.887943,115.677200 49.684444,115.443169 49.282558,115.075867 
	C46.873444,112.123528 44.637817,109.326118 42.199505,106.255829 
	C40.684719,103.560760 39.372616,101.138557 38.030594,98.359657 
	C41.712215,100.302910 45.385227,102.668816 49.153934,104.870972 
	C50.701714,105.775383 52.455788,106.326759 54.468239,107.117645 
	C55.436363,108.284851 56.052280,109.373131 56.833893,110.730988 
	C55.336266,112.731758 53.672939,114.462967 51.983009,116.550049 
	C51.956398,116.905922 51.525082,116.888809 51.310577,116.868477 
	C50.889629,116.620827 50.669552,116.407570 50.251190,116.070633 
M45.740231,105.848274 
	C45.896233,105.961037 46.052231,106.073792 46.208237,106.186554 
	C46.109882,106.021698 46.011528,105.856842 45.740231,105.848274 
M50.497871,111.476913 
	C50.497871,111.476913 50.509495,111.511902 50.497871,111.476913 
z"/>
<path fill="#506BF6" opacity="1.000000" stroke="none" 
	d="
M26.765007,120.239792 
	C28.093096,120.333084 29.189407,120.665108 30.627907,121.038467 
	C29.858831,122.627098 28.747570,124.174400 27.314861,125.871689 
	C25.286146,126.007027 23.578880,125.992378 21.446083,125.969437 
	C22.858112,124.133614 24.695673,122.306068 26.765007,120.239792 
z"/>
<path fill="#5770F0" opacity="1.000000" stroke="none" 
	d="
M48.912216,58.570038 
	C48.557499,58.792614 48.111458,58.817505 47.331955,58.807770 
	C47.605957,58.639545 48.213428,58.505943 48.912216,58.570038 
z"/>
<path fill="#556EEF" opacity="1.000000" stroke="none" 
	d="
M58.077713,122.884247 
	C58.000706,122.999603 57.995453,122.504646 57.993492,122.257248 
	C58.197338,122.235260 58.251732,122.488274 58.077713,122.884247 
z"/>
<path fill="#5870E9" opacity="1.000000" stroke="none" 
	d="
M45.826702,105.770126 
	C46.011528,105.856842 46.109882,106.021698 46.208237,106.186554 
	C46.052231,106.073792 45.896233,105.961037 45.826702,105.770126 
z"/>
<path fill="#5870E9" opacity="1.000000" stroke="none" 
	d="
M50.503685,111.494408 
	C50.509495,111.511902 50.497871,111.476913 50.503685,111.494408 
z"/>
</svg>