<?xml version="1.0" encoding="UTF-8" standalone="no"?>
<svg xmlns="http://www.w3.org/2000/svg" width="1024" height="1024" viewBox="0 0 1024 1024" version="1.1">
  <defs>
    <linearGradient id="iconGradient" x1="27%" y1="13%" x2="78%" y2="88%">
      <stop offset="0%" stop-color="#76D6ED"/>
      <stop offset="32%" stop-color="#24B1EF"/>
      <stop offset="63%" stop-color="#1869FF"/>
      <stop offset="100%" stop-color="#7D33FF"/>
    </linearGradient>
  </defs>
  <path d="M 506.0,105.0 L 492.0,106.0 L 481.0,108.0 L 469.0,111.0 L 460.0,114.0 L 455.0,116.0 L 453.0,118.0 L 433.0,127.0 L 421.0,135.0 L 409.0,144.0 L 396.0,156.0 L 390.0,162.0 L 362.0,192.0 L 334.0,221.0 L 330.0,224.0 L 328.0,226.0 L 310.0,246.0 L 282.0,275.0 L 252.0,305.0 L 251.0,306.0 L 232.0,326.0 L 231.0,327.0 L 217.0,343.0 L 201.0,360.0 L 183.0,378.0 L 177.0,385.0 L 171.0,392.0 L 167.0,397.0 L 164.0,401.0 L 161.0,405.0 L 157.0,411.0 L 151.0,420.0 L 148.0,425.0 L 145.0,431.0 L 140.0,441.0 L 137.0,448.0 L 136.0,453.0 L 134.0,458.0 L 132.0,460.0 L 133.0,461.0 L 131.0,463.0 L 130.0,466.0 L 128.0,473.0 L 127.0,477.0 L 126.0,481.0 L 125.0,486.0 L 124.0,491.0 L 123.0,498.0 L 122.0,509.0 L 122.0,531.0 L 123.0,541.0 L 124.0,548.0 L 125.0,554.0 L 126.0,559.0 L 127.0,564.0 L 128.0,568.0 L 129.0,572.0 L 130.0,575.0 L 131.0,579.0 L 132.0,582.0 L 134.0,584.0 L 136.0,589.0 L 138.0,596.0 L 141.0,603.0 L 142.0,605.0 L 143.0,607.0 L 149.0,618.0 L 153.0,624.0 L 159.0,633.0 L 163.0,637.0 L 164.0,640.0 L 168.0,644.0 L 168.0,645.0 L 171.0,648.0 L 180.0,656.0 L 192.0,670.0 L 207.0,686.0 L 211.0,689.0 L 211.0,690.0 L 214.0,693.0 L 228.0,706.0 L 237.0,717.0 L 268.0,748.0 L 288.0,770.0 L 320.0,803.0 L 357.0,841.0 L 396.0,880.0 L 401.0,884.0 L 405.0,887.0 L 409.0,890.0 L 412.0,892.0 L 415.0,894.0 L 417.0,894.0 L 424.0,899.0 L 428.0,901.0 L 430.0,902.0 L 436.0,904.0 L 440.0,907.0 L 443.0,907.0 L 445.0,909.0 L 450.0,911.0 L 453.0,912.0 L 456.0,913.0 L 460.0,914.0 L 464.0,915.0 L 469.0,916.0 L 474.0,917.0 L 483.0,918.0 L 508.0,918.0 L 515.0,917.0 L 521.0,916.0 L 525.0,915.0 L 532.0,913.0 L 535.0,912.0 L 538.0,911.0 L 543.0,909.0 L 545.0,908.0 L 547.0,906.0 L 555.0,903.0 L 560.0,900.0 L 568.0,895.0 L 571.0,893.0 L 575.0,890.0 L 581.0,884.0 L 582.0,884.0 L 587.0,879.0 L 592.0,873.0 L 596.0,868.0 L 599.0,864.0 L 601.0,861.0 L 601.0,859.0 L 606.0,852.0 L 608.0,848.0 L 610.0,842.0 L 612.0,840.0 L 613.0,838.0 L 617.0,826.0 L 618.0,822.0 L 619.0,818.0 L 620.0,812.0 L 621.0,806.0 L 621.0,780.0 L 620.0,773.0 L 619.0,766.0 L 617.0,757.0 L 615.0,750.0 L 612.0,739.0 L 610.0,736.0 L 609.0,733.0 L 607.0,725.0 L 605.0,714.0 L 597.0,688.0 L 591.0,664.0 L 591.0,652.0 L 592.0,649.0 L 593.0,647.0 L 598.0,642.0 L 601.0,640.0 L 604.0,639.0 L 610.0,638.0 L 616.0,639.0 L 620.0,641.0 L 626.0,644.0 L 633.0,648.0 L 655.0,661.0 L 660.0,664.0 L 665.0,667.0 L 676.0,675.0 L 683.0,679.0 L 685.0,679.0 L 692.0,684.0 L 694.0,685.0 L 701.0,688.0 L 706.0,690.0 L 715.0,693.0 L 719.0,694.0 L 724.0,695.0 L 729.0,696.0 L 737.0,697.0 L 748.0,698.0 L 751.0,698.0 L 760.0,697.0 L 768.0,696.0 L 773.0,695.0 L 777.0,694.0 L 781.0,693.0 L 790.0,690.0 L 797.0,687.0 L 801.0,685.0 L 807.0,682.0 L 814.0,678.0 L 817.0,676.0 L 829.0,667.0 L 836.0,661.0 L 849.0,648.0 L 857.0,639.0 L 866.0,627.0 L 868.0,624.0 L 870.0,621.0 L 873.0,616.0 L 877.0,609.0 L 879.0,605.0 L 882.0,599.0 L 885.0,592.0 L 887.0,587.0 L 890.0,577.0 L 892.0,575.0 L 893.0,572.0 L 897.0,556.0 L 898.0,551.0 L 899.0,544.0 L 900.0,537.0 L 900.0,524.0 L 901.0,523.0 L 901.0,511.0 L 900.0,499.0 L 899.0,492.0 L 898.0,485.0 L 897.0,480.0 L 894.0,468.0 L 891.0,459.0 L 886.0,446.0 L 884.0,441.0 L 881.0,435.0 L 876.0,425.0 L 872.0,418.0 L 869.0,413.0 L 867.0,410.0 L 865.0,407.0 L 856.0,395.0 L 849.0,387.0 L 841.0,378.0 L 827.0,364.0 L 793.0,326.0 L 777.0,310.0 L 766.0,297.0 L 750.0,281.0 L 736.0,265.0 L 719.0,247.0 L 702.0,229.0 L 684.0,211.0 L 665.0,191.0 L 655.0,179.0 L 653.0,177.0 L 633.0,157.0 L 629.0,153.0 L 627.0,151.0 L 620.0,145.0 L 608.0,136.0 L 605.0,134.0 L 602.0,132.0 L 597.0,129.0 L 592.0,126.0 L 584.0,122.0 L 573.0,118.0 L 569.0,115.0 L 566.0,114.0 L 563.0,113.0 L 557.0,111.0 L 553.0,110.0 L 549.0,109.0 L 544.0,108.0 L 539.0,107.0 L 532.0,106.0 L 520.0,105.0 Z M 508.0,244.0 L 517.0,244.0 L 524.0,245.0 L 529.0,246.0 L 536.0,248.0 L 541.0,250.0 L 546.0,253.0 L 549.0,256.0 L 552.0,257.0 L 562.0,267.0 L 627.0,333.0 L 669.0,376.0 L 693.0,401.0 L 713.0,423.0 L 740.0,450.0 L 756.0,467.0 L 759.0,471.0 L 762.0,475.0 L 765.0,480.0 L 766.0,482.0 L 768.0,487.0 L 772.0,497.0 L 773.0,500.0 L 774.0,505.0 L 775.0,515.0 L 775.0,522.0 L 774.0,530.0 L 773.0,534.0 L 771.0,537.0 L 772.0,538.0 L 771.0,541.0 L 769.0,543.0 L 768.0,547.0 L 766.0,551.0 L 764.0,554.0 L 756.0,562.0 L 753.0,564.0 L 750.0,565.0 L 747.0,566.0 L 736.0,566.0 L 733.0,565.0 L 724.0,561.0 L 707.0,553.0 L 680.0,539.0 L 626.0,511.0 L 604.0,501.0 L 547.0,471.0 L 545.0,471.0 L 543.0,470.0 L 512.0,453.0 L 468.0,431.0 L 465.0,430.0 L 462.0,429.0 L 458.0,428.0 L 451.0,428.0 L 447.0,429.0 L 441.0,432.0 L 438.0,434.0 L 433.0,439.0 L 431.0,442.0 L 430.0,444.0 L 429.0,446.0 L 428.0,449.0 L 427.0,453.0 L 427.0,462.0 L 428.0,468.0 L 430.0,479.0 L 431.0,484.0 L 435.0,498.0 L 438.0,517.0 L 444.0,540.0 L 448.0,563.0 L 451.0,576.0 L 453.0,579.0 L 454.0,584.0 L 455.0,588.0 L 454.0,590.0 L 456.0,593.0 L 457.0,597.0 L 459.0,605.0 L 460.0,610.0 L 459.0,612.0 L 461.0,614.0 L 462.0,618.0 L 464.0,632.0 L 465.0,637.0 L 468.0,645.0 L 469.0,649.0 L 469.0,654.0 L 472.0,668.0 L 475.0,681.0 L 478.0,690.0 L 481.0,703.0 L 482.0,712.0 L 485.0,721.0 L 485.0,726.0 L 488.0,740.0 L 489.0,745.0 L 491.0,749.0 L 492.0,751.0 L 491.0,753.0 L 494.0,763.0 L 494.0,773.0 L 493.0,776.0 L 491.0,779.0 L 489.0,781.0 L 486.0,783.0 L 484.0,784.0 L 481.0,785.0 L 471.0,785.0 L 468.0,784.0 L 466.0,783.0 L 464.0,782.0 L 454.0,772.0 L 453.0,772.0 L 444.0,763.0 L 432.0,750.0 L 426.0,742.0 L 412.0,727.0 L 398.0,713.0 L 388.0,701.0 L 374.0,686.0 L 344.0,655.0 L 331.0,640.0 L 316.0,625.0 L 304.0,611.0 L 275.0,581.0 L 261.0,566.0 L 258.0,562.0 L 256.0,559.0 L 253.0,551.0 L 251.0,549.0 L 250.0,547.0 L 247.0,538.0 L 246.0,532.0 L 245.0,523.0 L 245.0,517.0 L 246.0,508.0 L 247.0,503.0 L 248.0,499.0 L 249.0,496.0 L 250.0,493.0 L 255.0,482.0 L 256.0,480.0 L 258.0,477.0 L 260.0,474.0 L 264.0,469.0 L 302.0,431.0 L 331.0,400.0 L 384.0,347.0 L 423.0,306.0 L 472.0,257.0 L 475.0,255.0 L 478.0,253.0 L 482.0,251.0 L 488.0,248.0 L 492.0,247.0 L 500.0,245.0 Z" fill="url(#iconGradient)" fill-rule="evenodd"/>
</svg>
